<svg width="40" height="40" viewBox="0 0 40 40" fill="none" xmlns="http://www.w3.org/2000/svg">
<rect width="40" height="40" rx="20" fill="#A35BFF"/>
<path d="M28.3291 28.0039V33.1884C28.3291 33.5373 28.5928 33.8291 28.9396 33.8666C30.4892 34.034 31.9242 34.2703 33.201 34.5629C33.6278 34.6607 34.034 34.3356 34.034 33.8978V29.4984C34.034 29.1823 33.8167 28.9087 33.5094 28.8345C31.9941 28.4692 30.2414 28.1848 28.3291 28.0039Z" fill="#48DF69"/>
<path d="M33.5093 28.834C33.057 28.725 32.5831 28.6233 32.0906 28.5293V34.3307C32.4721 34.4035 32.8434 34.4805 33.2011 34.5625C33.6278 34.6602 34.034 34.3352 34.034 33.8974V29.498C34.0339 29.1817 33.8166 28.9081 33.5093 28.834Z" fill="#22C833"/>
<path d="M11.6709 28.0039V33.1884C11.6709 33.5373 11.4073 33.8291 11.0604 33.8666C9.51088 34.034 8.07581 34.2703 6.799 34.5629C6.37225 34.6607 5.96606 34.3356 5.96606 33.8978V29.4984C5.96606 29.1823 6.18331 28.9087 6.49069 28.8345C8.00588 28.4692 9.75863 28.1848 11.6709 28.0039Z" fill="#48DF69"/>
<path d="M9.49194 28.2645V34.0657C10.0001 33.9916 10.5228 33.9247 11.0603 33.8666C11.4072 33.8291 11.6708 33.5373 11.6708 33.1884V28.0039C10.918 28.0751 10.1904 28.1626 9.49194 28.2645Z" fill="#22C833"/>
<path d="M9.42169 30.9518C9.42169 31.39 9.82844 31.7145 10.2556 31.6167C12.9398 31.0017 16.323 30.6348 19.9999 30.6348C23.6769 30.6348 27.0601 31.0016 29.7444 31.6167C30.1715 31.7145 30.5783 31.39 30.5783 30.9518V26.5525C30.5783 26.2366 30.3616 25.9628 30.0545 25.8887C27.3229 25.2299 23.8199 24.834 19.9999 24.834C16.1799 24.834 12.6769 25.2299 9.94538 25.8887C9.63832 25.9628 9.42163 26.2366 9.42163 26.5525L9.42169 30.9518Z" fill="#8AE47C"/>
<path d="M30.0545 25.8887C29.51 25.7574 28.9345 25.6367 28.3323 25.5273V31.3282C28.8213 31.417 29.2929 31.5132 29.7443 31.6167C30.1714 31.7145 30.5782 31.39 30.5782 30.9518V26.5525C30.5782 26.2366 30.3615 25.9628 30.0545 25.8887Z" fill="#45D32E"/>
<path d="M10.2158 20.4743L9.27926 21.7215C9.23632 21.7786 9.21369 21.8484 9.21482 21.9198L9.23932 23.4795C9.24363 23.7475 8.98038 23.939 8.72701 23.852L7.25132 23.3466C7.18369 23.3234 7.11032 23.3234 7.04269 23.3466L5.56701 23.852C5.31319 23.9389 5.05038 23.7475 5.05426 23.4795L5.07919 21.9199C5.08032 21.8484 5.05763 21.7786 5.01469 21.7214L4.07763 20.4743C3.91676 20.2597 4.01738 19.9504 4.27382 19.8716L5.76438 19.4132C5.83269 19.3922 5.89207 19.349 5.93319 19.2906L6.82994 18.0141C6.98438 17.7948 7.30957 17.7948 7.46357 18.0141L8.36032 19.2906C8.40138 19.3491 8.46082 19.3922 8.52913 19.4132L10.0201 19.8716C10.2764 19.9503 10.3767 20.2596 10.2158 20.4743Z" fill="#FDDD45"/>
<path d="M10.2156 20.4736L9.279 21.7208C9.23606 21.7779 9.21343 21.8477 9.21456 21.9191L9.23906 23.4788C9.24337 23.7468 8.98012 23.9383 8.72675 23.8513L7.25106 23.3459C7.18343 23.3227 7.11006 23.3227 7.04243 23.3459L5.56675 23.8513C5.31293 23.9382 5.05012 23.7468 5.054 23.4788L5.06818 22.5768C7.7525 22.4331 8.95956 20.678 9.42931 19.6895L10.0199 19.871C10.2762 19.9496 10.3764 20.259 10.2156 20.4736Z" fill="#F8C52D"/>
<path d="M15.0486 8.62472L14.1121 9.87184C14.0691 9.92897 14.0465 9.99878 14.0476 10.0702L14.0721 11.6299C14.0765 11.8979 13.8132 12.0893 13.5598 12.0024L12.0841 11.497C12.0165 11.4738 11.9431 11.4738 11.8755 11.497L10.3998 12.0024C10.146 12.0893 9.8832 11.8978 9.88708 11.6299L9.91202 10.0703C9.91314 9.99878 9.89045 9.92897 9.84752 9.87178L8.91064 8.62472C8.74977 8.41003 8.85039 8.10078 9.10683 8.02203L10.5974 7.56359C10.6657 7.54259 10.7251 7.49941 10.7662 7.44097L11.663 6.16453C11.8174 5.94516 12.1426 5.94516 12.2966 6.16453L13.1933 7.44097C13.2344 7.49947 13.2938 7.54259 13.3621 7.56359L14.8531 8.02203C15.1093 8.10078 15.2095 8.41009 15.0486 8.62472Z" fill="#FDDD45"/>
<path d="M15.0486 8.62403L14.112 9.87116C14.0691 9.92828 14.0464 9.99809 14.0476 10.0695L14.0721 11.6292C14.0764 11.8972 13.8131 12.0887 13.5598 12.0017L12.0841 11.4963C12.0164 11.4731 11.9431 11.4731 11.8754 11.4963L10.3998 12.0017C10.1459 12.0886 9.88313 11.8972 9.88701 11.6292L9.90119 10.7272C12.5855 10.5835 13.7926 8.82834 14.2623 7.83984L14.8529 8.02141C15.1092 8.10009 15.2094 8.40941 15.0486 8.62403Z" fill="#F8C52D"/>
<path d="M35.9222 20.4743L34.9856 21.7215C34.9427 21.7786 34.9201 21.8484 34.9212 21.9198L34.9457 23.4795C34.95 23.7475 34.6867 23.939 34.4334 23.852L32.9577 23.3466C32.8901 23.3234 32.8167 23.3234 32.7491 23.3466L31.2734 23.852C31.0196 23.9389 30.7567 23.7475 30.7606 23.4795L30.7856 21.9199C30.7867 21.8484 30.764 21.7786 30.721 21.7214L29.7842 20.4743C29.6233 20.2597 29.7239 19.9504 29.9804 19.8716L31.4709 19.4132C31.5392 19.3922 31.5986 19.349 31.6397 19.2906L32.5365 18.0141C32.6909 17.7948 33.0161 17.7948 33.1701 18.0141L34.0669 19.2906C34.108 19.3491 34.1674 19.3922 34.2357 19.4132L35.7266 19.8716C35.9829 19.9503 36.0831 20.2596 35.9222 20.4743Z" fill="#FDDD45"/>
<path d="M35.9221 20.4736L34.9855 21.7208C34.9426 21.7779 34.92 21.8477 34.9211 21.9191L34.9456 23.4788C34.9499 23.7468 34.6867 23.9383 34.4333 23.8513L32.9576 23.3459C32.89 23.3227 32.8166 23.3227 32.749 23.3459L31.2733 23.8513C31.0195 23.9382 30.7567 23.7468 30.7605 23.4788L30.7747 22.5768C33.459 22.4331 34.6661 20.678 35.1359 19.6895L35.7265 19.871C35.9828 19.9496 36.083 20.259 35.9221 20.4736Z" fill="#F8C52D"/>
<path d="M31.0894 8.62472L30.1529 9.87184C30.1099 9.92897 30.0873 9.99878 30.0884 10.0702L30.1129 11.6299C30.1172 11.8979 29.854 12.0893 29.6006 12.0024L28.1249 11.497C28.0573 11.4738 27.9839 11.4738 27.9163 11.497L26.4406 12.0024C26.1868 12.0893 25.924 11.8978 25.9279 11.6299L25.9528 10.0703C25.9539 9.99878 25.9312 9.92897 25.8883 9.87178L24.9514 8.62472C24.7905 8.41003 24.8912 8.10078 25.1476 8.02203L26.6382 7.56359C26.7065 7.54259 26.7659 7.49941 26.807 7.44097L27.7037 6.16453C27.8582 5.94516 28.1834 5.94516 28.3374 6.16453L29.2341 7.44097C29.2752 7.49947 29.3346 7.54259 29.4029 7.56359L30.8938 8.02203C31.1501 8.10078 31.2503 8.41009 31.0894 8.62472Z" fill="#FDDD45"/>
<path d="M31.0893 8.62403L30.1528 9.87116C30.1098 9.92828 30.0872 9.99809 30.0883 10.0695L30.1128 11.6292C30.1172 11.8972 29.8539 12.0887 29.6005 12.0017L28.1248 11.4963C28.0572 11.4731 27.9838 11.4731 27.9162 11.4963L26.4405 12.0017C26.1867 12.0886 25.9239 11.8972 25.9278 11.6292L25.942 10.7272C28.6263 10.5835 29.8333 8.82834 30.3031 7.83984L30.8937 8.02141C31.15 8.10009 31.2502 8.40941 31.0893 8.62403Z" fill="#F8C52D"/>
<path d="M29.2078 17.3888L26.3023 21.2572C26.2594 21.3144 26.2367 21.3842 26.2378 21.4556L26.314 26.2932C26.328 27.147 25.4896 27.7559 24.6815 27.4795L20.1045 25.9122C20.0369 25.8891 19.9635 25.8891 19.896 25.9122L15.3189 27.4795C14.5107 27.7559 13.6724 27.147 13.6858 26.2933L13.7626 21.4557C13.7637 21.3842 13.741 21.3144 13.6981 21.2572L10.7926 17.3888C10.2798 16.7055 10.5997 15.7205 11.4163 15.4694L16.0406 14.0469C16.109 14.0259 16.1683 13.9827 16.2094 13.9243L18.9914 9.96598C19.4825 9.26655 20.5179 9.26655 21.009 9.96598L23.791 13.9243C23.832 13.9827 23.8914 14.0259 23.9597 14.0469L28.584 15.4694C29.4006 15.7205 29.7205 16.7055 29.2078 17.3888Z" fill="#FCA62F"/>
<path d="M26.314 28.0052C26.3276 28.8595 25.4897 29.4679 24.6817 29.1919L20.0001 27.5889L15.3184 29.1919C14.5105 29.4679 13.6725 28.8595 13.6855 28.0052L13.7297 25.2141C15.6515 24.9709 17.7723 24.8359 20 24.8359C22.2277 24.8359 24.3478 24.9708 26.2696 25.2141L26.314 28.0052Z" fill="#45D32E"/>
<path d="M29.2077 17.3883L26.3023 21.2567C26.2593 21.3138 26.2366 21.3836 26.2378 21.4551L26.3139 26.2927C26.3279 27.1465 25.4896 27.7554 24.6815 27.479L20.1045 25.9117C20.0368 25.8886 19.9635 25.8886 19.8959 25.9117L15.3188 27.479C14.5106 27.7554 13.6723 27.1465 13.6857 26.2928L13.704 25.1458C22.3664 23.5736 25.6531 17.9432 26.8127 14.9238L28.5841 15.4689C29.4006 15.72 29.7205 16.705 29.2077 17.3883Z" fill="#F98824"/>
<path d="M23.7698 20.6546L23.8247 24.1356C23.8282 24.3586 23.6095 24.5175 23.3985 24.4453L20.1044 23.3175C20.0369 23.2944 19.9635 23.2944 19.8959 23.3175L16.6018 24.4453C16.3909 24.5175 16.1721 24.3586 16.1756 24.1356L16.2305 20.6547C16.2316 20.5833 16.2089 20.5134 16.1661 20.4563L14.0752 17.6719C13.9412 17.4936 14.0249 17.2364 14.238 17.1709L17.5664 16.1474C17.6347 16.1264 17.6941 16.0833 17.7352 16.0248L19.7367 13.1759C19.8649 12.9934 20.1354 12.9934 20.2636 13.1759L22.2651 16.0248C22.3062 16.0833 22.3656 16.1264 22.4339 16.1474L25.7617 17.1709C25.9749 17.2364 26.0584 17.4936 25.9246 17.6719L23.8342 20.4564C23.7914 20.5134 23.7687 20.5832 23.7698 20.6546Z" fill="#FEE265"/>
<path d="M23.7698 20.653L23.8247 24.134C23.8282 24.357 23.6095 24.5159 23.3985 24.4436L20.1045 23.3159C20.0369 23.2928 19.9635 23.2928 19.8959 23.3159L16.6018 24.4437C16.3908 24.516 16.1721 24.357 16.1756 24.1341L16.2028 22.4068C20.8237 21.8126 23.0202 18.7406 23.9988 16.627L25.7617 17.1693C25.9748 17.2348 26.0584 17.492 25.9245 17.6703L23.8342 20.4548C23.7914 20.5118 23.7687 20.5816 23.7698 20.653Z" fill="#F8C52D"/>
</svg>
