<svg width="145" height="145" viewBox="0 0 145 145" fill="none" xmlns="http://www.w3.org/2000/svg">
<path d="M113.7 112.395H123.896V109.15H113.7V112.395Z" fill="#EBEBEB"/>
<path d="M107.535 41.4294H97.3384V44.6745H107.535V41.4294Z" fill="#EBEBEB"/>
<path d="M119.387 116.484C121.081 116.458 125.422 116.386 127.058 116.365H129.583L129.45 116.496V113.251L129.595 113.396C127.901 113.396 123.583 113.376 121.948 113.352L119.399 113.32L119.468 113.251L119.399 116.496L119.387 116.484ZM119.387 116.484L119.32 113.239V113.173H119.39C120.663 113.155 123.218 113.126 124.488 113.115L129.586 113.094H129.731V113.239V116.484V116.618H129.601H127.029C125.405 116.6 121.084 116.525 119.404 116.496L119.387 116.484Z" fill="#EBEBEB"/>
<path d="M73.28 77.0501C71.5835 77.0791 67.3002 77.1516 65.6559 77.169H63.0865H62.9531V77.0356V73.7905V73.66H63.101L68.1963 73.6803C69.4665 73.6803 72.0272 73.718 73.2945 73.7354H73.367V73.8021L73.2974 77.0472L73.28 77.0501ZM73.28 77.0501L73.2133 73.805L73.28 73.8746C72.0098 73.892 69.4549 73.921 68.1818 73.9297L63.0865 73.95L63.2286 73.805V77.0501L63.0981 76.9196H65.624C67.2393 76.937 71.6212 77.0095 73.2916 77.0385L73.28 77.0501Z" fill="#EBEBEB"/>
<path d="M67.5931 81.142C65.8937 81.171 61.6104 81.2435 59.969 81.2609L57.3967 81.2754H57.2662V81.142L57.2517 77.8969V77.7519H57.3967L62.4949 77.7722C63.7651 77.7722 66.3229 77.8099 67.5931 77.8273H67.6627V77.894L67.5931 81.1391V81.142ZM67.5931 81.142L67.5235 77.8969L67.5931 77.9665C66.3229 77.9839 63.768 78.01 62.4949 78.0216L57.3967 78.0419L57.5417 77.8969V81.142L57.4083 81.0115H59.9342C61.5524 81.0289 65.9343 81.1014 67.6047 81.1304L67.5931 81.142Z" fill="#EBEBEB"/>
<path d="M61.9293 73.805H51.7329V77.0501H61.9293V73.805Z" fill="#EBEBEB"/>
<path d="M15.4164 116.487H25.6128V113.242H15.4164V116.487Z" fill="#EBEBEB"/>
<path d="M21.1032 16.2777H31.2996V13.0326L21.1032 13.0326V16.2777Z" fill="#EBEBEB"/>
<path d="M15.4163 20.3667C17.1099 20.3377 21.4512 20.2652 23.0868 20.2478H25.6127L25.4793 20.3783V17.1332L25.6243 17.2782C23.9307 17.2782 19.6126 17.2579 17.977 17.2347L15.4279 17.2028L15.4859 17.11L15.4163 20.3551V20.3667ZM15.4163 20.3667L15.3467 17.11V17.0433H15.4163C16.6894 17.0259 19.2414 16.9969 20.5145 16.9853L25.6127 16.965H25.7577V17.11V20.3551V20.4885H25.6272H23.0549C21.4309 20.4682 17.107 20.3957 15.4308 20.3667H15.4163Z" fill="#EBEBEB"/>
<path d="M113.7 16.2748C115.394 16.2458 119.735 16.1762 121.371 16.1559H123.897L123.763 16.2864V13.0413L123.908 13.1863L118.81 13.166C117.54 13.166 114.982 13.1283 113.712 13.1109L113.781 13.0413L113.712 16.2864L113.7 16.2748ZM113.7 16.2748L113.631 13.0297V12.963H113.7C114.973 12.9456 117.528 12.9166 118.798 12.905L123.897 12.8847H124.042V13.0297L124.027 16.2748V16.4082H123.897H121.324C119.7 16.3879 115.379 16.3154 113.7 16.2864V16.2748Z" fill="#EBEBEB"/>
<path d="M114.927 44.8862H65.4993V11.8436H114.927V44.8862ZM65.7893 44.5962H114.637V12.1336H65.7893V44.5962Z" fill="#EBEBEB"/>
<path d="M67.9121 13.3893C67.9121 13.4885 67.8827 13.5855 67.8275 13.668C67.7724 13.7505 67.6941 13.8148 67.6024 13.8528C67.5107 13.8908 67.4098 13.9007 67.3125 13.8814C67.2152 13.862 67.1258 13.8142 67.0556 13.7441C66.9855 13.6739 66.9377 13.5845 66.9183 13.4872C66.899 13.3899 66.9089 13.289 66.9469 13.1973C66.9849 13.1056 67.0492 13.0273 67.1317 12.9722C67.2142 12.917 67.3112 12.8876 67.4104 12.8876C67.5432 12.8884 67.6704 12.9415 67.7643 13.0354C67.8582 13.1293 67.9113 13.2565 67.9121 13.3893Z" fill="#A6A6A6"/>
<path d="M69.9595 13.3893C69.9595 13.4885 69.93 13.5855 69.8749 13.668C69.8198 13.7505 69.7414 13.8148 69.6497 13.8528C69.5581 13.8908 69.4572 13.9007 69.3599 13.8814C69.2626 13.862 69.1732 13.8142 69.103 13.7441C69.0328 13.6739 68.9851 13.5845 68.9657 13.4872C68.9463 13.3899 68.9563 13.289 68.9942 13.1973C69.0322 13.1056 69.0965 13.0273 69.179 12.9722C69.2615 12.917 69.3585 12.8876 69.4578 12.8876C69.5906 12.8884 69.7177 12.9415 69.8117 13.0354C69.9056 13.1293 69.9587 13.2565 69.9595 13.3893Z" fill="#EBEBEB"/>
<path d="M72.0068 13.3893C72.0068 13.4885 71.9774 13.5855 71.9223 13.668C71.8671 13.7505 71.7888 13.8148 71.6971 13.8528C71.6054 13.8908 71.5046 13.9007 71.4072 13.8814C71.3099 13.862 71.2205 13.8142 71.1504 13.7441C71.0802 13.6739 71.0324 13.5845 71.0131 13.4872C70.9937 13.3899 71.0036 13.289 71.0416 13.1973C71.0796 13.1056 71.1439 13.0273 71.2264 12.9722C71.3089 12.917 71.4059 12.8876 71.5051 12.8876C71.6382 12.8876 71.7658 12.9405 71.8599 13.0345C71.954 13.1286 72.0068 13.2562 72.0068 13.3893Z" fill="#FFC727"/>
<path d="M114.782 14.7494H65.6443V15.0394H114.782V14.7494Z" fill="#EBEBEB"/>
<path d="M35.3394 21.7007H15.7383V45.4778H35.3394V21.7007Z" fill="#EBEBEB"/>
<path d="M33.1035 23.8699H17.98V43.3057H33.1035V23.8699Z" fill="white"/>
<path d="M18.5687 23.8699H17.98V43.3057H18.5687V23.8699Z" fill="#C7C7C7"/>
<path d="M35.931 21.7007H35.3423V45.4778H35.931V21.7007Z" fill="#C7C7C7"/>
<path d="M25.8766 38.9876H29.4436V28.3649H25.8766V38.9876Z" fill="#EBEBEB"/>
<path d="M31.1458 31.9H21.3467V26.39H31.1458V31.9ZM21.6367 31.61H30.8558V26.68H21.6367V31.61Z" fill="#EBEBEB"/>
<path d="M46.9392 80.2981H27.3381V104.075H46.9392V80.2981Z" fill="#EBEBEB"/>
<path d="M44.7033 82.4673H29.5798V101.903H44.7033V82.4673Z" fill="white"/>
<path d="M30.1685 82.4673H29.5798V101.903H30.1685V82.4673Z" fill="#C7C7C7"/>
<path d="M47.5308 80.2981H46.9421V104.075H47.5308V80.2981Z" fill="#C7C7C7"/>
<path d="M38.2132 86.9623H34.6462V97.585H38.2132V86.9623Z" fill="#EBEBEB"/>
<path d="M42.7459 90.4974H32.9468V85.0019H42.7459V90.4974ZM33.2368 90.2074H42.4559V85.2919H33.2368V90.2074Z" fill="#EBEBEB"/>
<path d="M41.1392 51.1067H21.5381V74.8838H41.1392V51.1067Z" fill="#EBEBEB"/>
<path d="M38.9033 53.2759H23.7798V72.7117H38.9033V53.2759Z" fill="white"/>
<path d="M24.3685 53.2759H23.7798V72.7117H24.3685V53.2759Z" fill="#C7C7C7"/>
<path d="M41.7308 51.1067H41.1421V74.8838H41.7308V51.1067Z" fill="#C7C7C7"/>
<path d="M32.9294 58.3016H29.8757V66.0243H32.9294V58.3016Z" fill="#EBEBEB"/>
<path d="M36.2934 68.4632H27.7964V62.8488H36.2934V68.4632ZM28.0864 68.1732H36.0034V63.1388H28.0864V68.1732Z" fill="#DBDBDB"/>
<path d="M13.2676 129.004C51.217 128.824 93.7832 128.824 131.733 129.004C93.7832 129.18 51.217 129.18 13.2676 129.004Z" fill="#263238"/>
<path d="M116.539 101.564C121.069 105.998 121.829 112.859 120.875 118.871C120.849 119.007 120.64 118.97 120.64 118.842C120.64 117.473 120.68 116.116 120.678 114.765C120.651 114.704 120.631 114.646 120.605 114.585C119.425 113.715 118.337 112.752 117.664 111.421C116.908 109.933 116.609 108.254 116.032 106.703C115.977 106.552 116.136 106.595 116.241 106.674C118.996 108.704 119.874 110.893 120.663 113.816C120.647 112.287 120.487 110.762 120.185 109.263C119.59 106.491 118.41 103.753 116.415 101.683C116.345 101.604 116.461 101.5 116.539 101.564Z" fill="#263238"/>
<path d="M115.687 102.08C114.907 102.106 114.419 103.353 113.813 103.716C113.75 103.77 113.675 103.81 113.595 103.833C113.515 103.856 113.43 103.861 113.348 103.849C113.265 103.836 113.186 103.806 113.116 103.76C113.047 103.714 112.988 103.653 112.943 103.582C112.34 102.741 113.167 101.703 113.944 101.126C113.387 101.352 112.929 101.755 112.329 101.868C112.252 101.894 112.171 101.902 112.091 101.893C112.01 101.884 111.933 101.858 111.864 101.817C111.795 101.775 111.736 101.719 111.69 101.652C111.645 101.586 111.614 101.51 111.601 101.43C111.337 100.285 112.761 99.7774 113.758 99.7513C113.28 99.4207 111.911 98.5188 112.639 98.0722C113.367 97.6256 114.982 98.919 115.507 99.3453C116.278 99.9688 117.195 100.903 117.23 101.88C117.285 103.023 116.29 102.321 115.687 102.08Z" fill="#FFC727"/>
<path opacity="0.1" d="M115.687 102.08C114.907 102.106 114.419 103.353 113.813 103.716C113.75 103.77 113.675 103.81 113.595 103.833C113.515 103.856 113.43 103.861 113.348 103.849C113.265 103.836 113.186 103.806 113.116 103.76C113.047 103.714 112.988 103.653 112.943 103.582C112.34 102.741 113.167 101.703 113.944 101.126C113.387 101.352 112.929 101.755 112.329 101.868C112.252 101.894 112.171 101.902 112.091 101.893C112.01 101.884 111.933 101.858 111.864 101.817C111.795 101.775 111.736 101.719 111.69 101.652C111.645 101.586 111.614 101.51 111.601 101.43C111.337 100.285 112.761 99.7774 113.758 99.7513C113.28 99.4207 111.911 98.5188 112.639 98.0722C113.367 97.6256 114.982 98.919 115.507 99.3453C116.278 99.9688 117.195 100.903 117.23 101.88C117.285 103.023 116.29 102.321 115.687 102.08Z" fill="black"/>
<path d="M115.913 102.271C114.915 101.819 113.013 102.472 112.839 102.095C112.508 101.326 114.039 100.801 114.869 100.7C114.106 100.494 112.65 100.163 112.694 99.4323C112.749 98.5362 114.93 99.3047 116.035 100.152C117.424 101.219 117.415 102.245 117.195 102.451C116.87 102.735 116.078 102.347 115.913 102.271Z" fill="#FFC727"/>
<path d="M126.855 101.126C122.16 105.383 121.139 112.213 121.864 118.253C121.884 118.39 122.096 118.361 122.102 118.233C122.154 116.867 122.163 115.51 122.221 114.158L122.296 113.982C123.511 113.167 124.633 112.242 125.358 110.934C126.17 109.484 126.533 107.808 127.168 106.294C127.229 106.146 127.069 106.184 126.962 106.256C124.132 108.182 123.169 110.333 122.267 113.216C122.343 111.689 122.561 110.172 122.919 108.686C123.621 105.937 124.903 103.237 126.979 101.254C126.988 101.245 126.994 101.236 126.999 101.225C127.004 101.214 127.006 101.202 127.006 101.191C127.006 101.179 127.004 101.167 127 101.157C126.996 101.146 126.989 101.136 126.981 101.127C126.973 101.119 126.963 101.112 126.952 101.108C126.941 101.103 126.93 101.101 126.918 101.101C126.906 101.1 126.895 101.103 126.884 101.107C126.873 101.111 126.863 101.118 126.855 101.126Z" fill="#263238"/>
<path d="M127.687 101.674C128.464 101.729 128.905 102.994 129.499 103.379C129.561 103.435 129.633 103.477 129.712 103.503C129.791 103.528 129.875 103.536 129.957 103.527C130.04 103.517 130.119 103.49 130.19 103.447C130.262 103.404 130.323 103.346 130.369 103.278C131.002 102.46 130.216 101.393 129.462 100.784C130.01 101.033 130.453 101.454 131.048 101.59C131.124 101.615 131.204 101.624 131.283 101.617C131.363 101.61 131.44 101.586 131.51 101.548C131.58 101.51 131.641 101.457 131.69 101.394C131.739 101.331 131.774 101.258 131.793 101.181C132.101 100.044 130.685 99.4816 129.699 99.4207C130.19 99.1075 131.593 98.2607 130.883 97.7851C130.172 97.3095 128.508 98.5391 127.968 98.9451C127.174 99.5396 126.228 100.439 126.15 101.416C126.054 102.553 127.078 101.889 127.687 101.674Z" fill="#FFC727"/>
<path opacity="0.1" d="M127.687 101.674C128.464 101.729 128.905 102.994 129.499 103.379C129.561 103.435 129.633 103.477 129.712 103.503C129.791 103.528 129.875 103.536 129.957 103.527C130.04 103.517 130.119 103.49 130.19 103.447C130.262 103.404 130.323 103.346 130.369 103.278C131.002 102.46 130.216 101.393 129.462 100.784C130.01 101.033 130.453 101.454 131.048 101.59C131.124 101.615 131.204 101.624 131.283 101.617C131.363 101.61 131.44 101.586 131.51 101.548C131.58 101.51 131.641 101.457 131.69 101.394C131.739 101.331 131.774 101.258 131.793 101.181C132.101 100.044 130.685 99.4816 129.699 99.4207C130.19 99.1075 131.593 98.2607 130.883 97.7851C130.172 97.3095 128.508 98.5391 127.968 98.9451C127.174 99.5396 126.228 100.439 126.15 101.416C126.054 102.553 127.078 101.889 127.687 101.674Z" fill="black"/>
<path d="M127.455 101.857C128.467 101.442 130.355 102.167 130.532 101.796C130.891 101.042 129.372 100.456 128.563 100.323C129.328 100.146 130.799 99.8731 130.781 99.1394C130.761 98.2433 128.551 98.9306 127.417 99.7339C125.987 100.746 125.967 101.764 126.179 101.987C126.483 102.283 127.287 101.926 127.455 101.857Z" fill="#FFC727"/>
<path d="M122.055 112.375C121.74 114.652 121.255 116.903 120.605 119.109C120.593 119.148 120.566 119.182 120.53 119.203C120.494 119.224 120.452 119.231 120.411 119.222C120.371 119.214 120.335 119.191 120.31 119.158C120.285 119.125 120.274 119.083 120.278 119.042C120.585 116.969 121.148 114.93 121.455 112.856C121.786 110.756 121.901 108.627 121.8 106.502C121.603 103.005 120.64 99.2844 118.369 96.5468C118.32 96.483 118.424 96.3902 118.477 96.4511C123.047 101.778 122.319 108.309 122.316 108.895C122.963 106.691 123.63 104.162 126.086 101.918C126.194 101.819 126.275 101.865 126.257 102.031C125.819 106.12 124.683 108.257 122.31 110.441C122.243 111.092 122.158 111.737 122.055 112.375Z" fill="#263238"/>
<path d="M118.337 97.15C117.514 96.7846 116.38 97.8315 115.568 97.9011C115.475 97.923 115.379 97.9251 115.286 97.907C115.192 97.889 115.103 97.8513 115.026 97.7965C114.948 97.7417 114.882 97.6709 114.834 97.589C114.785 97.507 114.755 97.4157 114.744 97.3211C114.541 96.1611 115.922 95.4883 117.018 95.2911C116.328 95.2505 115.646 95.4332 114.968 95.2505C114.876 95.2379 114.787 95.2056 114.709 95.1559C114.63 95.1062 114.563 95.0402 114.512 94.9624C114.462 94.8846 114.428 94.7968 114.414 94.7049C114.4 94.6131 114.406 94.5192 114.431 94.4298C114.736 93.1103 116.481 93.3046 117.517 93.7744C117.189 93.1944 116.22 91.5646 117.201 91.4689C118.181 91.3732 119.207 93.525 119.535 94.2326C120.022 95.2679 120.504 96.7005 120.048 97.73C119.521 98.9422 118.839 97.7097 118.337 97.15Z" fill="#FFC727"/>
<path opacity="0.1" d="M118.337 97.15C117.514 96.7846 116.38 97.8315 115.568 97.9011C115.475 97.923 115.379 97.9251 115.286 97.907C115.192 97.889 115.103 97.8513 115.026 97.7965C114.948 97.7417 114.882 97.6709 114.834 97.589C114.785 97.507 114.755 97.4157 114.744 97.3211C114.541 96.1611 115.922 95.4883 117.018 95.2911C116.328 95.2505 115.646 95.4332 114.968 95.2505C114.876 95.2379 114.787 95.2056 114.709 95.1559C114.63 95.1062 114.563 95.0402 114.512 94.9624C114.462 94.8846 114.428 94.7968 114.414 94.7049C114.4 94.6131 114.406 94.5192 114.431 94.4298C114.736 93.1103 116.481 93.3046 117.517 93.7744C117.189 93.1944 116.22 91.5646 117.201 91.4689C118.181 91.3732 119.207 93.525 119.535 94.2326C120.022 95.2679 120.504 96.7005 120.048 97.73C119.521 98.9422 118.839 97.7097 118.337 97.15Z" fill="black"/>
<path d="M118.474 97.4719C117.667 96.5004 115.353 96.2133 115.373 95.7319C115.42 94.7691 117.27 94.9924 118.178 95.3027C117.493 94.7053 116.148 93.6323 116.562 92.8957C117.07 91.9938 118.943 93.8904 119.663 95.323C120.57 97.1297 120.042 98.1911 119.7 98.2897C119.23 98.4318 118.61 97.6343 118.474 97.4719Z" fill="#FFC727"/>
<path d="M125.059 113.605L127.075 129.004H114.814C115.066 127.638 117.348 113.587 117.348 113.587L125.059 113.605Z" fill="#FFC727"/>
<path d="M123.192 92.2432H70.3281V17.2289H128.931V86.4983L123.192 92.2432Z" fill="white"/>
<path d="M123.192 92.2432C123.166 92.2432 70.3223 92.2664 70.2962 92.2751C70.2701 92.2838 70.2701 17.2434 70.2556 17.2289V17.1564H70.3281C70.3571 17.1564 128.943 17.197 128.972 17.1883C129.001 17.1796 128.92 86.4983 128.934 86.4983C128.949 86.4983 123.192 92.2403 123.192 92.2432ZM123.192 92.2432L128.926 86.4983L128.891 17.2289C129.146 17.3159 70.273 17.2811 70.3281 17.3014L70.4006 17.2289L70.36 92.2432C70.1628 92.1678 123.236 92.2635 123.192 92.2432Z" fill="#263238"/>
<path d="M128.931 17.2289H70.3281V19.3198H128.931V17.2289Z" fill="#FFC727"/>
<path d="M71.8651 18.27C71.8651 18.34 71.8443 18.4084 71.8054 18.4666C71.7666 18.5247 71.7113 18.5701 71.6467 18.5969C71.582 18.6236 71.5109 18.6307 71.4422 18.617C71.3736 18.6033 71.3106 18.5697 71.2611 18.5202C71.2116 18.4707 71.1779 18.4077 71.1643 18.339C71.1506 18.2704 71.1576 18.1993 71.1844 18.1346C71.2112 18.07 71.2565 18.0147 71.3147 17.9758C71.3729 17.9369 71.4413 17.9162 71.5113 17.9162C71.6051 17.9162 71.6951 17.9535 71.7614 18.0198C71.8278 18.0862 71.8651 18.1762 71.8651 18.27Z" fill="#C7C7C7"/>
<path d="M73.3062 18.27C73.3062 18.34 73.2855 18.4084 73.2466 18.4666C73.2077 18.5248 73.1525 18.5701 73.0878 18.5969C73.0232 18.6237 72.952 18.6307 72.8834 18.617C72.8148 18.6034 72.7517 18.5697 72.7023 18.5202C72.6528 18.4707 72.6191 18.4077 72.6054 18.339C72.5918 18.2704 72.5988 18.1993 72.6256 18.1346C72.6523 18.07 72.6977 18.0147 72.7559 17.9758C72.8141 17.937 72.8825 17.9162 72.9524 17.9162C72.999 17.9158 73.0452 17.9247 73.0883 17.9424C73.1314 17.96 73.1705 17.986 73.2035 18.019C73.2364 18.0519 73.2624 18.0911 73.2801 18.1342C73.2977 18.1773 73.3066 18.2234 73.3062 18.27Z" fill="white"/>
<path d="M74.7506 18.27C74.7506 18.34 74.7298 18.4084 74.6909 18.4666C74.6521 18.5247 74.5968 18.5701 74.5322 18.5969C74.4675 18.6236 74.3964 18.6307 74.3277 18.617C74.2591 18.6033 74.1961 18.5697 74.1466 18.5202C74.0971 18.4707 74.0634 18.4077 74.0498 18.339C74.0361 18.2704 74.0431 18.1993 74.0699 18.1346C74.0967 18.07 74.142 18.0147 74.2002 17.9758C74.2584 17.9369 74.3268 17.9162 74.3968 17.9162C74.4432 17.9162 74.4892 17.9254 74.5322 17.9431C74.5751 17.9609 74.6141 17.987 74.6469 18.0198C74.6798 18.0527 74.7059 18.0917 74.7236 18.1346C74.7414 18.1775 74.7506 18.2235 74.7506 18.27Z" fill="#455A64"/>
<path d="M93.3424 25.5606H92.3941L92.2027 26.0681C92.1802 26.1226 92.1373 26.1661 92.0831 26.1894C92.0289 26.2127 91.9678 26.2139 91.9127 26.1928C91.885 26.1826 91.8596 26.1668 91.8381 26.1466C91.8166 26.1263 91.7994 26.1019 91.7875 26.0749C91.7756 26.0478 91.7692 26.0186 91.7688 25.9891C91.7684 25.9595 91.774 25.9302 91.7851 25.9028L92.6551 23.6031C92.6728 23.5624 92.7019 23.5278 92.7391 23.5036C92.7762 23.4794 92.8196 23.4666 92.8639 23.4668C92.908 23.466 92.9513 23.4786 92.9881 23.5029C93.0249 23.5272 93.0534 23.5622 93.0698 23.6031L93.9398 25.9028C93.9505 25.9304 93.9556 25.9598 93.9548 25.9894C93.954 26.019 93.9474 26.0481 93.9353 26.0751C93.9231 26.1021 93.9057 26.1264 93.8841 26.1466C93.8625 26.1668 93.8371 26.1825 93.8093 26.1928C93.7854 26.1977 93.7608 26.1977 93.7368 26.1928C93.6935 26.1937 93.6509 26.181 93.615 26.1566C93.5792 26.1322 93.5518 26.0972 93.5367 26.0565L93.3424 25.5606ZM93.1829 25.1314L92.8668 24.2933L92.5507 25.1314H93.1829Z" fill="#263238"/>
<path d="M96.2801 25.8825C96.2976 25.9367 96.2932 25.9957 96.2677 26.0467C96.2422 26.0976 96.1977 26.1366 96.1438 26.1551C96.1149 26.1584 96.0857 26.1584 96.0568 26.1551C96.0025 26.1553 95.9492 26.1402 95.9031 26.1116C95.8515 26.0764 95.8088 26.0298 95.7784 25.9753C95.7188 25.8312 95.6921 25.6757 95.7001 25.52C95.7 25.4617 95.684 25.4045 95.6537 25.3547C95.6239 25.3071 95.5831 25.2673 95.5348 25.2387C95.4671 25.1975 95.3938 25.1663 95.3173 25.1459H94.8562V25.9927C94.8562 26.0211 94.8505 26.0493 94.8396 26.0755C94.8286 26.1017 94.8125 26.1255 94.7923 26.1455C94.7721 26.1654 94.7481 26.1812 94.7217 26.1918C94.6953 26.2024 94.6671 26.2077 94.6387 26.2073C94.6104 26.2077 94.5823 26.2024 94.5561 26.1918C94.5299 26.1811 94.5061 26.1653 94.4861 26.1453C94.4661 26.1253 94.4503 26.1015 94.4396 26.0753C94.429 26.0491 94.4237 26.021 94.4241 25.9927V23.6872C94.4237 23.6589 94.429 23.6308 94.4396 23.6046C94.4503 23.5784 94.4661 23.5546 94.4861 23.5346C94.5061 23.5146 94.5299 23.4988 94.5561 23.4881C94.5823 23.4775 94.6104 23.4722 94.6387 23.4726H95.3376C95.4475 23.4726 95.5564 23.4943 95.6579 23.5365C95.7594 23.5786 95.8516 23.6404 95.9292 23.7182C96.0068 23.7961 96.0682 23.8885 96.11 23.9902C96.1518 24.0919 96.1732 24.2008 96.1728 24.3107C96.1706 24.432 96.1416 24.5513 96.088 24.66C96.0344 24.7688 95.9574 24.8644 95.8625 24.94C95.9151 24.9811 95.961 25.03 95.9988 25.085C96.084 25.2087 96.1295 25.3553 96.1293 25.5055C96.1189 25.5825 96.1189 25.6605 96.1293 25.7375C96.1647 25.7468 96.1972 25.765 96.2236 25.7904C96.25 25.8158 96.2694 25.8475 96.2801 25.8825ZM95.732 24.3107C95.7328 24.2577 95.723 24.205 95.7032 24.1558C95.6834 24.1065 95.6541 24.0617 95.6168 24.024C95.5796 23.9862 95.5352 23.9562 95.4863 23.9357C95.4374 23.9152 95.3848 23.9047 95.3318 23.9047H94.8504V24.7109H95.3318C95.4379 24.7109 95.5397 24.6687 95.6148 24.5937C95.6898 24.5186 95.732 24.4168 95.732 24.3107Z" fill="#263238"/>
<path d="M98.5074 23.9047H97.8868V25.9898C97.8868 26.0467 97.8642 26.1013 97.8239 26.1415C97.7837 26.1818 97.7291 26.2044 97.6722 26.2044C97.6152 26.2044 97.5607 26.1818 97.5204 26.1415C97.4802 26.1013 97.4576 26.0467 97.4576 25.9898V23.9047H96.8399C96.7827 23.9039 96.7281 23.8807 96.6879 23.84C96.6478 23.7993 96.6253 23.7444 96.6253 23.6872C96.6249 23.6589 96.6302 23.6308 96.6408 23.6046C96.6515 23.5784 96.6672 23.5546 96.6873 23.5346C96.7073 23.5146 96.7311 23.4988 96.7573 23.4881C96.7835 23.4775 96.8116 23.4722 96.8399 23.4726H98.5074C98.5643 23.4726 98.6189 23.4952 98.6591 23.5355C98.6994 23.5757 98.722 23.6303 98.722 23.6872C98.7212 23.7442 98.6985 23.7986 98.6585 23.8392C98.6185 23.8797 98.5643 23.9032 98.5074 23.9047Z" fill="#263238"/>
<path d="M99.3948 23.6872C99.3944 23.6589 99.3997 23.6308 99.4103 23.6046C99.421 23.5784 99.4368 23.5546 99.4568 23.5346C99.4768 23.5146 99.5006 23.4988 99.5268 23.4881C99.553 23.4775 99.5811 23.4722 99.6094 23.4726C99.6666 23.4726 99.7215 23.4951 99.7622 23.5353C99.8029 23.5754 99.8261 23.63 99.8269 23.6872V25.9898C99.8261 26.047 99.8029 26.1016 99.7622 26.1417C99.7215 26.1819 99.6666 26.2044 99.6094 26.2044C99.5811 26.2048 99.553 26.1995 99.5268 26.1889C99.5006 26.1782 99.4768 26.1624 99.4568 26.1424C99.4368 26.1224 99.421 26.0986 99.4103 26.0724C99.3997 26.0462 99.3944 26.0181 99.3948 25.9898V23.6872Z" fill="#263238"/>
<path d="M100.439 24.8008C100.445 24.4252 100.599 24.067 100.867 23.8038C101.135 23.5406 101.496 23.3935 101.871 23.3943C102.196 23.3873 102.514 23.4894 102.773 23.6843C102.815 23.7227 102.841 23.7752 102.845 23.8316C102.85 23.888 102.834 23.9442 102.799 23.989C102.764 24.0338 102.714 24.064 102.658 24.0736C102.603 24.0832 102.545 24.0716 102.498 24.041C102.321 23.8966 102.099 23.8196 101.871 23.8235C101.608 23.8279 101.357 23.9315 101.167 24.1135C100.984 24.2935 100.88 24.5385 100.877 24.795C100.877 24.9217 100.904 25.047 100.953 25.1635C101.003 25.28 101.076 25.3854 101.167 25.4736C101.357 25.6556 101.608 25.7592 101.871 25.7636C102.099 25.7667 102.32 25.6908 102.498 25.549C102.546 25.516 102.605 25.5021 102.663 25.5102C102.721 25.5182 102.773 25.5476 102.811 25.5925C102.845 25.6394 102.86 25.6975 102.853 25.7551C102.846 25.8127 102.818 25.8655 102.773 25.9028C102.514 26.0977 102.196 26.1999 101.871 26.1928C101.498 26.1952 101.138 26.0506 100.87 25.7902C100.602 25.5297 100.447 25.1744 100.439 24.8008Z" fill="#263238"/>
<path d="M103.571 25.9898V23.6872C103.571 23.6303 103.593 23.5757 103.634 23.5355C103.674 23.4952 103.729 23.4726 103.785 23.4726C103.843 23.4726 103.897 23.4951 103.938 23.5353C103.979 23.5754 104.002 23.63 104.003 23.6872V25.7723H105.061C105.118 25.7738 105.173 25.7973 105.213 25.8378C105.253 25.8784 105.275 25.9329 105.276 25.9898C105.275 26.0465 105.252 26.1006 105.212 26.1407C105.172 26.1808 105.118 26.2037 105.061 26.2044H103.785C103.757 26.2048 103.729 26.1995 103.703 26.1889C103.677 26.1782 103.653 26.1624 103.633 26.1424C103.613 26.1224 103.597 26.0986 103.586 26.0724C103.576 26.0462 103.57 26.0181 103.571 25.9898Z" fill="#263238"/>
<path d="M105.769 25.9898V23.6872C105.768 23.6589 105.774 23.6308 105.784 23.6046C105.795 23.5784 105.811 23.5546 105.831 23.5346C105.851 23.5146 105.875 23.4988 105.901 23.4881C105.927 23.4775 105.955 23.4722 105.983 23.4726H107.262C107.319 23.4726 107.374 23.4952 107.414 23.5355C107.454 23.5757 107.477 23.6303 107.477 23.6872C107.477 23.7444 107.454 23.7993 107.414 23.84C107.374 23.8807 107.319 23.9039 107.262 23.9047H106.204V24.621H107.112C107.168 24.6218 107.222 24.6446 107.262 24.6847C107.303 24.7248 107.325 24.7789 107.326 24.8356C107.327 24.864 107.321 24.8922 107.311 24.9186C107.3 24.945 107.284 24.969 107.264 24.9892C107.244 25.0095 107.221 25.0255 107.194 25.0365C107.168 25.0475 107.14 25.0531 107.112 25.0531H106.204V25.7723H107.262C107.319 25.7738 107.373 25.7973 107.413 25.8378C107.453 25.8784 107.476 25.9328 107.477 25.9898C107.476 26.0465 107.453 26.1006 107.413 26.1407C107.373 26.1808 107.319 26.2036 107.262 26.2044H105.995C105.966 26.206 105.937 26.2016 105.909 26.1915C105.882 26.1814 105.857 26.1659 105.836 26.1458C105.815 26.1257 105.798 26.1015 105.786 26.0747C105.775 26.0479 105.769 26.019 105.769 25.9898Z" fill="#263238"/>
<path d="M109.91 24.8414C114.898 24.6471 119.921 24.6471 124.906 24.8414C119.921 25.0357 114.898 25.0357 109.91 24.8414Z" fill="#263238"/>
<path d="M74.3474 24.8414C79.3325 24.6471 84.3553 24.6471 89.3433 24.8414C84.3553 25.0357 79.3325 25.0357 74.3474 24.8414Z" fill="#263238"/>
<path d="M124.915 27.7327H74.3474V30.8502H124.915V27.7327Z" fill="#FFC727"/>
<path d="M116.989 33.9532C119.544 33.8575 122.357 33.8575 124.912 33.9532C122.357 34.0489 119.544 34.0489 116.989 33.9532Z" fill="#263238"/>
<path d="M107.477 33.9532C109.77 33.8546 112.065 33.8546 114.362 33.9532C112.067 34.0518 109.772 34.0518 107.477 33.9532Z" fill="#263238"/>
<path d="M95.2913 33.9532C98.5132 33.8575 102.057 33.8575 105.276 33.9532C102.057 34.0489 98.5132 34.0489 95.2913 33.9532Z" fill="#263238"/>
<path d="M120.156 36.2181C121.74 36.121 123.328 36.121 124.912 36.2181C123.328 36.3167 121.74 36.3167 120.156 36.2181Z" fill="#263238"/>
<path d="M110.458 36.2181C113.213 36.1253 116.258 36.1224 118.999 36.2181C116.247 36.3138 113.213 36.3138 110.458 36.2181Z" fill="#263238"/>
<path d="M95.2913 36.2181C99.8037 36.1253 104.768 36.1224 109.281 36.2181C104.768 36.3138 99.8037 36.3138 95.2913 36.2181Z" fill="#263238"/>
<path d="M110.102 38.4859C114.881 38.3902 120.136 38.3902 124.912 38.4859C120.136 38.5816 114.881 38.5816 110.102 38.4859Z" fill="#263238"/>
<path d="M95.2913 38.4859C99.3513 38.3902 103.809 38.3902 107.863 38.4859C103.803 38.5816 99.3455 38.5816 95.2913 38.4859Z" fill="#263238"/>
<path d="M115.11 40.7508C118.271 40.658 121.751 40.6551 124.912 40.7508C121.751 40.8465 118.271 40.8465 115.11 40.7508Z" fill="#263238"/>
<path d="M104.148 40.7508C107.143 40.658 110.444 40.6551 113.428 40.7508C110.432 40.8465 107.132 40.8465 104.148 40.7508Z" fill="#263238"/>
<path d="M95.2913 40.7508C97.6925 40.658 100.334 40.6551 102.736 40.7508C100.334 40.8465 97.6925 40.8465 95.2913 40.7508Z" fill="#263238"/>
<path d="M95.2913 43.0186C101.732 42.9229 108.817 42.9229 115.258 43.0186C108.817 43.1143 101.732 43.1114 95.2913 43.0186Z" fill="#263238"/>
<path d="M118.743 47.56C120.8 47.4614 122.857 47.4614 124.912 47.56C122.855 47.6586 120.799 47.6586 118.743 47.56Z" fill="#263238"/>
<path d="M106.688 47.56C109.922 47.4643 113.483 47.4643 116.716 47.56C113.483 47.6557 109.922 47.6528 106.688 47.56Z" fill="#263238"/>
<path d="M95.2913 47.56C98.3885 47.4643 101.793 47.4643 104.887 47.56C101.793 47.6557 98.3885 47.6528 95.2913 47.56Z" fill="#263238"/>
<path d="M111.702 49.8162C115.965 49.7205 120.652 49.7205 124.912 49.8162C120.652 49.9119 115.965 49.9119 111.702 49.8162Z" fill="#263238"/>
<path d="M101.575 49.8162C104.328 49.7205 107.352 49.7205 110.101 49.8162C107.352 49.9119 104.328 49.9119 101.575 49.8162Z" fill="#263238"/>
<path d="M95.2913 49.8162C97.0425 49.7191 98.7977 49.7191 100.549 49.8162C98.7978 49.9148 97.0424 49.9148 95.2913 49.8162Z" fill="#263238"/>
<path d="M117.972 52.084C120.292 51.9854 122.605 51.9854 124.912 52.084C122.592 52.1826 120.279 52.1826 117.972 52.084Z" fill="#263238"/>
<path d="M107.863 52.084C110.563 51.9883 113.535 51.9883 116.235 52.084C113.535 52.1797 110.563 52.1768 107.863 52.084Z" fill="#263238"/>
<path d="M95.2913 52.084C98.9163 51.9883 102.904 51.9883 106.529 52.084C102.904 52.1797 98.9163 52.1768 95.2913 52.084Z" fill="#263238"/>
<path d="M113.889 54.3489C117.444 54.2532 121.356 54.2532 124.909 54.3489C121.354 54.4446 117.441 54.4446 113.889 54.3489Z" fill="#263238"/>
<path d="M104.533 54.3489C107.054 54.2532 109.826 54.2532 112.346 54.3489C109.826 54.4446 107.054 54.4446 104.533 54.3489Z" fill="#263238"/>
<path d="M92.6406 54.3489C96.167 54.2532 100.044 54.2532 103.571 54.3489C100.044 54.4446 96.167 54.4446 92.6406 54.3489Z" fill="#263238"/>
<path d="M84.7961 54.3489C86.8745 54.2503 88.9538 54.2503 91.034 54.3489C88.9538 54.4475 86.8745 54.4475 84.7961 54.3489Z" fill="#263238"/>
<path d="M74.3967 54.3489C77.3576 54.2532 80.6143 54.2532 83.5752 54.3489C80.6143 54.4446 77.3576 54.4446 74.3967 54.3489Z" fill="#263238"/>
<path d="M99.4702 56.6167C103.939 56.521 108.855 56.521 113.324 56.6167C108.855 56.7124 103.939 56.7095 99.4702 56.6167Z" fill="#263238"/>
<path d="M89.5869 56.6167C92.5217 56.521 95.7494 56.521 98.6842 56.6167C95.7494 56.7124 92.5217 56.7095 89.5869 56.6167Z" fill="#263238"/>
<path d="M81.9368 56.6167C84.2278 56.5181 86.5207 56.5181 88.8156 56.6167C86.5226 56.7134 84.2297 56.7134 81.9368 56.6167Z" fill="#263238"/>
<path d="M74.3967 56.6167C76.5659 56.5181 78.7361 56.5181 80.9072 56.6167C78.738 56.7134 76.5679 56.7134 74.3967 56.6167Z" fill="#263238"/>
<path d="M117.972 61.1494C120.292 61.0508 122.605 61.0508 124.912 61.1494C122.592 61.2441 120.279 61.2441 117.972 61.1494Z" fill="#263238"/>
<path d="M109.281 61.1494C111.766 61.0537 114.501 61.0537 116.989 61.1494C114.504 61.2451 111.769 61.2422 109.281 61.1494Z" fill="#263238"/>
<path d="M100.091 61.1494C102.596 61.0537 105.354 61.0537 107.863 61.1494C105.354 61.2451 102.596 61.2422 100.091 61.1494Z" fill="#263238"/>
<path d="M94.5054 61.1494C95.8965 61.0479 97.2932 61.0479 98.6843 61.1494C97.293 61.248 95.8966 61.248 94.5054 61.1494Z" fill="#263238"/>
<path d="M85.1848 61.1494C87.7397 61.0537 90.5527 61.0537 93.1076 61.1494C90.5527 61.2451 87.7397 61.2422 85.1848 61.1494Z" fill="#263238"/>
<path d="M74.3967 61.1494C77.5084 61.0537 80.9304 61.0537 84.0421 61.1494C80.9304 61.2451 77.5084 61.2422 74.3967 61.1494Z" fill="#263238"/>
<path d="M113.889 63.4143C117.444 63.3186 121.356 63.3186 124.909 63.4143C121.354 63.51 117.441 63.51 113.889 63.4143Z" fill="#263238"/>
<path d="M105.85 63.4143C108.151 63.3157 110.449 63.3157 112.743 63.4143C110.447 63.5129 108.149 63.5129 105.85 63.4143Z" fill="#263238"/>
<path d="M97.3008 63.4143C99.7136 63.3157 102.124 63.3157 104.533 63.4143C102.124 63.5129 99.7136 63.5129 97.3008 63.4143Z" fill="#263238"/>
<path d="M82.2585 63.4143C86.6433 63.3186 91.4689 63.3186 95.8537 63.4143C91.4689 63.51 86.6433 63.51 82.2585 63.4143Z" fill="#263238"/>
<path d="M74.3967 63.4143C76.5659 63.3157 78.7361 63.3157 80.9072 63.4143C78.738 63.5129 76.5679 63.5129 74.3967 63.4143Z" fill="#263238"/>
<path d="M91.3704 65.6792C95.3057 65.5864 99.6354 65.5835 103.571 65.6792C99.6354 65.7749 95.3057 65.7749 91.3704 65.6792Z" fill="#263238"/>
<path d="M84.7961 65.6792C86.6006 65.5835 88.4089 65.5835 90.2133 65.6792C88.409 65.7778 86.6005 65.7778 84.7961 65.6792Z" fill="#263238"/>
<path d="M74.3967 65.6792C77.2967 65.5864 80.4867 65.5835 83.3664 65.6792C80.4664 65.7749 77.2764 65.7749 74.3967 65.6792Z" fill="#263238"/>
<path d="M89.7783 67.947C92.4057 67.8513 95.2883 67.8513 97.9215 67.947C95.2941 68.0427 92.4115 68.0427 89.7783 67.947Z" fill="#263238"/>
<path d="M81.438 67.947C83.8334 67.8484 86.2278 67.8484 88.6213 67.947C86.2298 68.0456 83.8353 68.0456 81.438 67.947Z" fill="#263238"/>
<path d="M74.3967 67.947C76.4074 67.8484 78.4171 67.8484 80.4258 67.947C78.4152 68.0456 76.4055 68.0456 74.3967 67.947Z" fill="#263238"/>
<path d="M93.1074 72.4797C96.4801 72.384 100.195 72.384 103.571 72.4797C100.195 72.5754 96.4801 72.5754 93.1074 72.4797Z" fill="#263238"/>
<path d="M84.2334 72.4797C86.7071 72.384 89.4273 72.384 91.8981 72.4797C89.4273 72.5754 86.7071 72.5754 84.2334 72.4797Z" fill="#263238"/>
<path d="M74.3967 72.4797C77.1662 72.384 80.1967 72.384 82.9807 72.4797C80.2112 72.5754 77.1662 72.5754 74.3967 72.4797Z" fill="#263238"/>
<path d="M97.469 74.7446C99.5048 74.6479 101.535 74.6479 103.559 74.7446C101.527 74.8432 99.4971 74.8432 97.469 74.7446Z" fill="#263238"/>
<path d="M88.8154 74.7446C91.1615 74.6518 93.7454 74.6489 96.0973 74.7446C93.7483 74.8403 91.1673 74.8403 88.8154 74.7446Z" fill="#263238"/>
<path d="M80.4258 74.7446C82.7825 74.6479 85.1421 74.6479 87.5047 74.7446C85.1441 74.8432 82.7844 74.8432 80.4258 74.7446Z" fill="#263238"/>
<path d="M74.3967 74.7446C76.0028 74.6474 77.6133 74.6474 79.2194 74.7446C77.6134 74.8432 76.0028 74.8432 74.3967 74.7446Z" fill="#263238"/>
<path d="M91.8982 77.0124C95.6682 76.9167 99.8065 76.9167 103.571 77.0124C99.8007 77.1081 95.6624 77.1081 91.8982 77.0124Z" fill="#263238"/>
<path d="M83.9639 77.0124C86.1775 76.9138 88.3893 76.9138 90.5991 77.0124C88.3893 77.111 86.1775 77.111 83.9639 77.0124Z" fill="#263238"/>
<path d="M74.3967 77.0124C77.0879 76.9167 80.0488 76.9167 82.74 77.0124C80.0488 77.1081 77.0879 77.1081 74.3967 77.0124Z" fill="#263238"/>
<path d="M74.3967 79.2773C79.4978 79.1845 85.1093 79.1816 90.2133 79.2773C85.1122 79.373 79.4978 79.373 74.3967 79.2773Z" fill="#263238"/>
<path d="M109.742 83.81C114.637 83.7172 120.02 83.7143 124.912 83.81C120.02 83.9057 114.637 83.9057 109.742 83.81Z" fill="#263238"/>
<path d="M100.549 83.81C103.159 83.7172 106.027 83.7143 108.634 83.81C106.024 83.9057 103.156 83.9057 100.549 83.81Z" fill="#263238"/>
<path d="M95.2913 83.81C96.6825 83.7107 98.079 83.7107 99.4702 83.81C98.0838 83.91 96.6921 83.91 95.3058 83.81H95.2913Z" fill="#263238"/>
<path d="M84.2334 83.81C87.4234 83.7172 90.9411 83.7143 94.134 83.81C90.944 83.9057 87.4263 83.9057 84.2334 83.81Z" fill="#263238"/>
<path d="M74.3967 83.81C77.1662 83.7172 80.1967 83.7143 82.9807 83.81C80.2112 83.9057 77.1662 83.9057 74.3967 83.81Z" fill="#263238"/>
<path d="M114.179 86.0778C117.642 85.9821 121.449 85.9821 124.909 86.0778C121.446 86.1735 117.639 86.1706 114.179 86.0778Z" fill="#263238"/>
<path d="M105.438 86.0778C107.79 85.9821 110.368 85.9821 112.732 86.0778C110.38 86.1735 107.802 86.1706 105.438 86.0778Z" fill="#263238"/>
<path d="M97.7302 86.0778C99.9323 85.9792 102.134 85.9792 104.336 86.0778C102.132 86.1764 99.9304 86.1764 97.7302 86.0778Z" fill="#263238"/>
<path d="M87.5046 86.0778C90.4365 85.9821 93.6642 85.9821 96.5932 86.0778C93.6642 86.1735 90.4365 86.1706 87.5046 86.0778Z" fill="#263238"/>
<path d="M80.217 86.0778C82.2838 85.9792 84.3515 85.9792 86.4201 86.0778C84.3534 86.1764 82.2857 86.1764 80.217 86.0778Z" fill="#263238"/>
<path d="M74.3967 86.0778C75.9244 85.9792 77.4568 85.9792 78.9845 86.0778C77.4568 86.1749 75.9245 86.1749 74.3967 86.0778Z" fill="#263238"/>
<path d="M100.091 88.3427C102.782 88.247 105.749 88.247 108.44 88.3427C105.749 88.4384 102.782 88.4384 100.091 88.3427Z" fill="#263238"/>
<path d="M92.4551 88.3427C94.5315 88.246 96.6079 88.246 98.6843 88.3427C96.6079 88.4413 94.5315 88.4413 92.4551 88.3427Z" fill="#263238"/>
<path d="M83.9639 88.3427C86.3535 88.247 88.9838 88.247 91.3705 88.3427C88.9838 88.4384 86.3535 88.4384 83.9639 88.3427Z" fill="#263238"/>
<path d="M74.3967 88.3427C77.0067 88.247 79.8864 88.247 82.4993 88.3427C79.8893 88.4384 77.0096 88.4384 74.3967 88.3427Z" fill="#263238"/>
<path d="M74.3474 52.0811H92.803V33.6255H74.3474V52.0811Z" fill="#EBEBEB"/>
<path d="M75.2522 51.1792H91.9011V34.5303H75.2522V51.1792Z" fill="#FFC727"/>
<path opacity="0.1" d="M77.9317 38.5033C77.8655 38.8341 77.9074 39.1775 78.0514 39.4826C78.1953 39.7877 78.4336 40.0385 78.7311 40.1977C79.0285 40.3569 79.3693 40.4162 79.703 40.3669C80.0368 40.3175 80.3458 40.162 80.5843 39.9234C80.8229 39.6849 80.9784 39.3759 81.0278 39.0421C81.0772 38.7084 81.0179 38.3676 80.8586 38.0701C80.6994 37.7727 80.4487 37.5344 80.1435 37.3904C79.8384 37.2465 79.495 37.2045 79.1642 37.2708C78.8601 37.3317 78.5808 37.4812 78.3615 37.7006C78.1422 37.9199 77.9926 38.1992 77.9317 38.5033Z" fill="black"/>
<path opacity="0.1" d="M79.8662 46.8582H91.8983L85.8837 40.1128L79.8662 46.8582Z" fill="black"/>
<path d="M75.2493 46.8582H85.1847L80.217 42.4647L75.2493 46.8582Z" fill="#FFC727"/>
<g opacity="0.2">
<path d="M75.2493 46.8582H85.1847L80.217 42.4647L75.2493 46.8582Z" fill="black"/>
</g>
<path d="M91.8982 46.8582H75.2493V51.1792H91.8982V46.8582Z" fill="#FFC727"/>
<path opacity="0.2" d="M91.8982 46.8582H75.2493V51.1792H91.8982V46.8582Z" fill="black"/>
<path d="M105.435 79.3585H125.077V65.5168H105.435V79.3585Z" fill="#EBEBEB"/>
<path d="M106.117 78.6799H124.401V66.1954H106.117V78.6799Z" fill="#455A64"/>
<path d="M108.127 69.1737C108.077 69.4214 108.109 69.6785 108.217 69.9068C108.325 70.1351 108.504 70.3227 108.726 70.4418C108.949 70.5608 109.204 70.6051 109.454 70.568C109.704 70.531 109.935 70.4145 110.114 70.2359C110.293 70.0573 110.409 69.826 110.446 69.5761C110.483 69.3263 110.439 69.0711 110.32 68.8484C110.201 68.6256 110.013 68.447 109.785 68.339C109.556 68.231 109.299 68.1993 109.052 68.2486C108.823 68.2944 108.614 68.4066 108.449 68.5713C108.285 68.7359 108.172 68.9455 108.127 69.1737Z" fill="#37474F"/>
<path d="M109.577 75.4406H124.401L116.989 70.3801L109.577 75.4406Z" fill="#37474F"/>
<path d="M106.114 75.4406H116.235L111.175 72.1462L106.114 75.4406Z" fill="#263238"/>
<path d="M124.399 75.4406H106.114V78.6799H124.399V75.4406Z" fill="#263238"/>
<path d="M70.328 57.536C71.8752 57.536 73.1294 56.2818 73.1294 54.7346C73.1294 53.1874 71.8752 51.9332 70.328 51.9332C68.7808 51.9332 67.5266 53.1874 67.5266 54.7346C67.5266 56.2818 68.7808 57.536 70.328 57.536Z" fill="#455A64"/>
<path d="M70.7601 55.5669C70.791 55.5976 70.8122 55.6367 70.8209 55.6794C70.8297 55.7221 70.8255 55.7664 70.8091 55.8067C70.7927 55.8471 70.7646 55.8816 70.7285 55.906C70.6925 55.9305 70.65 55.9436 70.6064 55.9439C70.5472 55.943 70.4904 55.9203 70.4469 55.8801L69.4696 54.8883C69.4651 54.8868 69.4612 54.8841 69.4581 54.8806C69.455 54.877 69.453 54.8726 69.4522 54.868C69.4499 54.8585 69.4499 54.8485 69.4522 54.839C69.4508 54.8343 69.4508 54.8292 69.4522 54.8245C69.4522 54.8245 69.4522 54.8071 69.4522 54.8042C69.4522 54.8013 69.4522 54.7897 69.4522 54.7868V54.7636C69.4522 54.7636 69.4522 54.7636 69.4522 54.7404C69.4522 54.7172 69.4522 54.7404 69.4522 54.723V54.6998C69.4522 54.6998 69.4522 54.6824 69.4522 54.6737C69.4569 54.6625 69.4627 54.6518 69.4696 54.6418C69.4746 54.6327 69.4815 54.6248 69.4899 54.6186L70.4701 53.592C70.5122 53.5516 70.5683 53.529 70.6267 53.529C70.6851 53.529 70.7412 53.5516 70.7833 53.592C70.804 53.6125 70.8204 53.6369 70.8316 53.6638C70.8428 53.6907 70.8486 53.7195 70.8486 53.7486C70.8486 53.7777 70.8428 53.8066 70.8316 53.8334C70.8204 53.8603 70.804 53.8847 70.7833 53.9052L69.9597 54.7346L70.7601 55.5669Z" fill="white"/>
<path d="M128.931 57.536C130.478 57.536 131.733 56.2818 131.733 54.7346C131.733 53.1874 130.478 51.9332 128.931 51.9332C127.384 51.9332 126.13 53.1874 126.13 54.7346C126.13 56.2818 127.384 57.536 128.931 57.536Z" fill="#455A64"/>
<path d="M128.49 53.9052C128.459 53.8745 128.438 53.8354 128.43 53.7927C128.421 53.75 128.425 53.7057 128.441 53.6654C128.458 53.625 128.486 53.5905 128.522 53.5661C128.558 53.5417 128.601 53.5285 128.644 53.5282C128.704 53.528 128.761 53.5509 128.804 53.592L129.781 54.5838C129.781 54.5838 129.795 54.5838 129.798 54.6041C129.801 54.6136 129.801 54.6236 129.798 54.6331C129.8 54.6378 129.8 54.6429 129.798 54.6476C129.798 54.6476 129.798 54.665 129.798 54.6679C129.798 54.6708 129.798 54.6824 129.798 54.6853V54.7085C129.798 54.7085 129.798 54.7085 129.798 54.7288C129.798 54.7491 129.798 54.7288 129.798 54.7462V54.7723C129.798 54.7723 129.798 54.7723 129.798 54.7868C129.798 54.8013 129.798 54.8042 129.798 54.8129C129.798 54.8129 129.798 54.8361 129.781 54.8419C129.777 54.8516 129.77 54.8597 129.761 54.8651L128.783 55.8569C128.741 55.8973 128.685 55.9199 128.627 55.9199C128.568 55.9199 128.512 55.8973 128.47 55.8569C128.449 55.8364 128.433 55.812 128.422 55.7851C128.411 55.7583 128.405 55.7294 128.405 55.7003C128.405 55.6712 128.411 55.6423 128.422 55.6155C128.433 55.5886 128.449 55.5642 128.47 55.5437L129.294 54.7114L128.49 53.9052Z" fill="white"/>
<path d="M123.192 92.2432L128.937 86.4983H123.192V92.2432Z" fill="#EBEBEB"/>
<path d="M46.1565 80.33C48.7346 94.8619 54.7028 112.427 57.4665 115.368C60.9755 119.089 83.7579 125.605 84.9672 125.808C87.9658 126.263 96.0568 107.602 92.8726 106.975C88.0238 106.027 70.6354 102.625 69.6262 101.483C68.5793 100.285 61.5555 90.4626 54.3809 79.3875C49.4422 71.7228 44.5557 71.3081 46.1565 80.33Z" fill="#D3766A"/>
<path d="M83.3432 125.393C83.6651 125.524 88.25 127.333 91.0311 127.876C93.1075 128.279 99.1134 129.282 99.7833 127.04C100.244 125.512 96.7818 124.509 94.3487 123.743C93.0669 123.34 91.4284 122.183 91.7213 121.356C92.2346 119.906 95.5377 121.017 97.7388 122.044C101.993 124.03 107.761 127.774 110.046 125.5C110.916 124.63 109.698 123.325 107.987 122.084C110.708 123.465 113.57 124.543 114.567 123.624C115.147 123.102 115.11 122.464 114.701 121.757C115.519 121.945 116.218 121.829 116.661 121.269C117.418 120.318 116.893 119.062 115.861 117.821C116.017 117.788 116.164 117.718 116.288 117.617C116.412 117.517 116.51 117.388 116.574 117.241C118.103 114.379 108.538 107.425 105.406 106.975C96.1902 105.644 86.7217 106.9 86.7217 106.9C83.4331 110.061 83.3345 125.39 83.3432 125.393Z" fill="#D3766A"/>
<path d="M95.8595 115.896C98.0354 116.037 100.156 116.642 102.08 117.668C104.504 118.973 106.181 120.602 108.26 122.209C108.312 122.25 108.26 122.336 108.196 122.296C107.204 121.53 103.13 118.694 102.086 118.059C100.196 116.885 98.0638 116.157 95.8508 115.93C95.8305 115.93 95.8363 115.893 95.8595 115.896Z" fill="#263238"/>
<path d="M97.1964 111.914C99.6266 112.349 102.126 112.784 104.414 113.709C106.935 114.721 108.999 116.551 111.026 118.308C112.244 119.364 113.437 120.447 114.605 121.556C114.654 121.603 114.605 121.69 114.541 121.643C112.482 119.826 110.369 118.07 108.202 116.374C106.202 114.79 103.908 113.618 101.454 112.923C100.05 112.529 98.6203 112.242 97.1906 111.957C97.1862 111.955 97.1827 111.952 97.1804 111.948C97.1782 111.943 97.1773 111.938 97.1779 111.934C97.1786 111.929 97.1807 111.924 97.184 111.921C97.1873 111.917 97.1916 111.915 97.1964 111.914Z" fill="#263238"/>
<path d="M99.4265 108.338C101.773 108.605 103.82 108.828 105.972 109.878C108.82 111.27 111.673 113.787 112.677 114.683C113.784 115.669 114.857 116.693 115.916 117.734C115.959 117.775 115.887 117.85 115.841 117.81C113.428 115.538 110.872 113.425 108.187 111.482C106.923 110.539 105.52 109.796 104.029 109.281C102.538 108.793 100.969 108.582 99.4265 108.356V108.338Z" fill="#263238"/>
<path d="M89.1373 104.04L80.4373 127.438C80.4373 127.438 60.4273 120.62 56.9009 116.418C53.3745 112.215 47.5745 91.2108 46.0607 81.0898C44.5469 70.9688 49.6016 71.4705 53.94 78.0216C58.2784 84.5727 69.107 100.465 69.7392 100.83C70.3714 101.196 89.1373 104.04 89.1373 104.04Z" fill="#FFC727"/>
<path d="M78.6771 116.479C79.6602 113.869 80.6636 111.259 81.5481 108.614C82.0527 107.109 82.5631 105.604 83.0532 104.096C83.0706 104.038 82.9749 103.997 82.9517 104.052C81.8613 106.633 80.7738 109.226 79.8023 111.859C78.8308 114.492 77.8448 117.079 76.9023 119.718C76.3707 121.214 75.8873 122.725 75.4523 124.251C75.4516 124.257 75.4531 124.263 75.4564 124.269C75.4597 124.274 75.4647 124.278 75.4706 124.281C75.4766 124.283 75.4831 124.283 75.4892 124.281C75.4954 124.28 75.5007 124.276 75.5045 124.271C76.6906 121.725 77.6882 119.109 78.6771 116.479Z" fill="#263238"/>
<path opacity="0.1" d="M70.3599 123.656L69.4754 123.296C67.8137 122.606 66.1201 121.873 64.528 121.124C64.3221 121.032 64.1191 120.936 63.9219 120.834C63.6 120.684 63.281 120.527 62.9736 120.373C62.817 120.298 62.6662 120.217 62.5125 120.141L62.3501 120.06L61.8716 119.811C61.2423 119.48 60.6449 119.152 60.091 118.825C59.9634 118.752 59.83 118.674 59.7053 118.596C58.8383 118.091 58.0267 117.497 57.2838 116.824C57.2142 116.754 57.1475 116.687 57.0866 116.621C57.0257 116.554 56.9619 116.487 56.9068 116.423C53.3949 112.233 47.5775 91.2166 46.0637 81.0956C46.0492 80.9767 46.0318 80.8607 46.0144 80.7447C46.013 80.7196 46.013 80.6944 46.0144 80.6693C45.9158 79.9008 45.8433 78.9525 45.7969 77.9288C45.765 72.9292 48.1662 72.2332 50.9734 74.5706C57.4781 90.538 67.3207 116.87 70.3599 123.656Z" fill="black"/>
<path d="M60.9001 128.925H13.2676C15.2802 119.95 23.6264 86.2953 38.3932 72.819L38.7209 72.529C40.864 70.6266 45.7012 71.0529 48.8709 72.6218C49.091 72.753 49.2871 72.9207 49.4509 73.1177C50.7153 74.5155 53.0121 78.4073 54.2881 82.3977C54.5122 83.0885 54.701 83.7902 54.8536 84.5002C54.8855 84.6365 54.9174 84.7902 54.9493 84.9845C54.9812 85.1237 55.0073 85.2745 55.0392 85.4514C55.0798 85.6921 55.1233 85.956 55.1726 86.246C56.4515 93.9774 59.714 119.213 60.9001 128.925Z" fill="#FFC727"/>
<path d="M45.9854 84.6075L48.2357 81.1797L50.576 83.926L49.9844 86.5273L47.3338 86.9594L45.9854 84.6075Z" fill="#263238"/>
<path d="M47.334 86.9594L47.0701 116.922L50.9503 126.24L54.468 116.157L49.9846 86.5273L47.334 86.9594Z" fill="#263238"/>
<path d="M33.0426 80.8549C25.7114 96.8281 20.7379 123.317 25.2793 127.345C30.3369 131.828 39.8663 113.025 39.4545 112.085C39.1413 111.375 39.3704 94.2848 39.7155 81.7916C40.0606 69.2984 34.8551 76.9051 33.0426 80.8549Z" fill="#D3766A"/>
<path d="M39.5677 112.062C39.4778 110.278 40.0201 87.6554 39.9563 80.5881C39.8925 73.5208 37.1375 72.326 32.9064 80.3561C28.6753 88.3862 22.4432 108.608 22.9797 119.929C23.4959 130.833 28.5709 130.062 33.5879 123.119C36.0579 119.712 38.0684 115.994 39.5677 112.062Z" fill="#FFC727"/>
<path d="M39.5125 114.982C39.2399 106.526 39.3656 98.0683 39.8895 89.61C40.164 98.0664 40.0384 106.524 39.5125 114.982Z" fill="#263238"/>
<path d="M39.9041 94.5197C40.0422 93.414 40.2909 92.3249 40.6465 91.2688C40.5818 92.3862 40.3308 93.485 39.9041 94.5197Z" fill="#263238"/>
<path d="M26.5583 127.571C30.6908 130.439 39.3502 128.87 59.0383 125.68C61.7614 125.237 62.5183 104.705 59.5806 105.026C55.886 105.432 41.6383 107.805 40.6204 108.112C32.0103 110.684 23.754 125.625 26.5583 127.571Z" fill="#D3766A"/>
<path d="M63.2751 103.82C68.9997 102.724 70.6382 103.321 74.9766 99.8325C77.8273 97.5415 80.5127 98.3825 78.996 101.863C76.5194 107.567 69.426 110.531 66.6768 110.853L63.2751 103.82Z" fill="#D3766A"/>
<path d="M50.7036 108.712C50.7036 108.712 54.5374 106.207 60.523 104.435C64.6613 103.211 73.9645 101.549 83.3895 110.333C85.6254 112.416 87.3335 116.972 82.447 114.895C78.967 113.419 77.227 111.435 75.0433 110.945C75.0433 110.945 76.531 116.998 74.356 119.155C72.4534 121.043 70.4182 122.792 68.266 124.39C67.8831 124.064 67.5217 123.713 67.1843 123.34C67.1843 123.34 65.1978 125.611 58.6583 125.747L50.7036 108.712Z" fill="#D3766A"/>
<path d="M64.6702 103.898C66.7263 104.841 71.0502 106.911 74.0024 109.838C77.2765 113.088 82.7024 120.228 80.2867 122.624C78.509 124.378 76.1948 121.832 76.1948 121.832C76.1948 121.832 77.8188 125.26 75.8671 126.492C74.0894 127.617 72.4161 125.541 72.4161 125.541C72.4161 125.541 73.0425 127.789 71.1227 128.543C68.8027 129.447 67.8747 124.59 64.7427 123.482C64.0235 123.25 64.6702 103.898 64.6702 103.898Z" fill="#D3766A"/>
<path d="M69.9799 112.726C71.7663 113.929 75.1274 117.708 76.2091 121.742C76.2352 121.832 76.1772 121.899 76.1395 121.82C74.4503 118.56 72.3712 115.517 69.948 112.758C69.9306 112.738 69.9596 112.711 69.9799 112.726Z" fill="#263238"/>
<path d="M66.7958 116.128C68.2313 117.325 71.5228 121.374 72.4769 125.498C72.4972 125.59 72.4392 125.654 72.4015 125.573C70.8829 122.232 68.9917 119.073 66.7639 116.157C66.7465 116.136 66.7755 116.113 66.7958 116.128Z" fill="#263238"/>
<path d="M75.0433 110.908C76.9486 111.366 78.2333 112.224 79.8602 113.245C80.6666 113.762 81.5012 114.233 82.36 114.657C83.1459 115.031 84.3059 115.6 85.0889 114.91C85.5239 114.527 85.4833 113.869 85.3557 113.358C85.0891 112.607 84.7044 111.903 84.216 111.273C84.1957 111.247 84.2363 111.215 84.2566 111.238C84.7274 111.811 85.1384 112.43 85.4833 113.086C85.7073 113.534 85.7922 114.039 85.7269 114.536C85.5036 115.588 84.2769 115.785 83.4069 115.545C82.8811 115.382 82.373 115.168 81.8902 114.904C81.4204 114.666 80.9651 114.405 80.5156 114.132C79.5905 113.576 78.7002 112.972 77.7838 112.392C76.8922 111.857 75.9672 111.379 75.0143 110.963C74.9824 110.954 75.0056 110.899 75.0433 110.908Z" fill="#263238"/>
<path d="M79.3121 117.32C78.7727 116.273 75.9133 111.943 75.0056 110.954C75.0006 110.949 74.9978 110.942 74.9978 110.935C74.9978 110.928 75.0006 110.921 75.0056 110.916C75.0106 110.911 75.0174 110.909 75.0245 110.909C75.0315 110.909 75.0383 110.911 75.0433 110.916C76.5803 112.23 79.1207 115.797 79.7268 116.951C80.3329 118.105 81.0289 119.561 81.0956 120.855C81.1971 122.818 79.9124 123.256 79.4368 123.375C78.8702 123.506 78.2755 123.44 77.7519 123.186C77.1367 122.851 76.5968 122.393 76.1656 121.841C76.1424 121.815 76.1656 121.777 76.2004 121.8C76.9196 122.54 78.0912 123.25 79.1497 123.053C79.3841 123.018 79.6092 122.936 79.8119 122.813C80.0145 122.69 80.1906 122.528 80.33 122.337C80.5972 121.849 80.6805 121.282 80.5649 120.739C80.3996 119.526 79.8689 118.395 79.3121 117.32Z" fill="#263238"/>
<path d="M56.2078 104.673L46.98 128.618C46.98 128.618 29.5423 130.938 25.5722 127.696C22.9622 125.561 30.7516 109.968 40.4521 107.75L56.2078 104.673Z" fill="#FFC727"/>
<path d="M30.5807 114.84C31.6537 113.199 34.8785 109.095 40.4668 107.732C40.5161 107.732 40.5451 107.796 40.4958 107.813C36.4358 109.231 31.8103 113.402 30.6358 114.892C30.6097 114.93 30.5517 114.878 30.5807 114.84Z" fill="#263238"/>
<path d="M41.4701 127.31C42.3401 124.622 43.358 121.986 44.3701 119.349C45.3822 116.713 46.4001 114.074 47.4992 111.462C48.1169 109.985 48.723 108.506 49.39 107.053C49.3931 107.044 49.3998 107.036 49.4088 107.031C49.4178 107.027 49.4282 107.026 49.4378 107.029C49.4474 107.032 49.4554 107.039 49.4601 107.048C49.4647 107.057 49.4656 107.067 49.4625 107.077C48.5925 109.759 47.5862 112.404 46.5828 115.043C45.5794 117.682 44.5528 120.321 43.4827 122.946C42.8853 124.427 42.2589 125.901 41.5919 127.353C41.5687 127.417 41.4411 127.38 41.4701 127.31Z" fill="#263238"/>
<path d="M56.1469 104.429C55.0504 104.51 53.9605 104.664 52.8844 104.89C51.7998 105.087 50.721 105.302 49.6422 105.525C47.4991 105.972 42.9084 106.671 39.1819 108.103C39.1413 108.118 39.4284 108.24 39.4719 108.219C41.2119 107.448 54.8999 105.131 55.9758 104.806C55.9579 104.89 55.9472 104.975 55.9439 105.061C55.9439 105.119 56.0193 105.169 56.0599 105.111C56.1556 104.971 56.2078 104.821 56.2948 104.681C56.3118 104.656 56.3213 104.626 56.3222 104.596C56.3231 104.565 56.3154 104.535 56.3 104.509C56.2846 104.482 56.262 104.461 56.2349 104.447C56.2078 104.433 56.1773 104.427 56.1469 104.429Z" fill="#263238"/>
<path d="M28.9798 129.067C25.5839 128.514 24.0759 127.267 23.2697 123.868C22.2402 119.344 22.8608 114.649 23.5336 110.122C24.7719 102.872 26.7555 95.7957 28.9943 88.8096C28.2026 91.9996 27.0571 96.3322 26.3263 99.4729C24.7806 106.433 21.3296 119.915 24.5051 126.33C25.4389 128.099 27.1644 128.603 28.9798 129.067Z" fill="#263238"/>
<path d="M28.0169 89.4563C27.8893 90.5786 27.695 91.6574 27.8139 92.7855C27.3905 91.7241 27.5964 90.4887 28.0169 89.4563Z" fill="#263238"/>
<path d="M48.3198 81.1449C45.4894 81.3914 41.4091 76.5223 40.0548 72.8625C39.962 72.6102 40.6783 70.2148 41.4091 67.2626C41.847 65.4704 42.2936 63.4636 42.5691 61.6047C42.6242 61.2219 53.8182 66.1548 53.8182 66.1548C53.8182 66.1548 52.0985 69.8842 51.6432 73.1322C51.6084 73.3887 51.5977 73.648 51.6113 73.9065C51.6113 73.9413 51.6113 73.9848 51.6113 74.0341C51.62 75.5189 51.0545 80.91 48.3198 81.1449Z" fill="#D3766A"/>
<path d="M43.2769 61.77C43.3552 64.9948 44.1933 72.8799 50.3993 73.9355C50.7964 74.0077 51.1991 74.0456 51.6028 74.0486C51.6084 74.0053 51.6084 73.9614 51.6028 73.9181C51.5926 73.6597 51.6023 73.4008 51.6318 73.1438C52.0929 69.8929 53.8155 66.1635 53.8155 66.1635C53.8155 66.1635 45.739 62.5936 43.2769 61.77Z" fill="#263238"/>
<path d="M44.3382 46.98C42.14 50.75 41.5281 63.0228 43.8075 66.3259C47.1135 71.1109 53.8995 73.0887 58.3075 68.7996C62.5879 64.6439 63.1012 48.6475 60.4274 45.5068C56.4921 40.8668 47.5833 41.3859 44.3382 46.98Z" fill="#D3766A"/>
<path d="M54.2302 57.2112C54.2302 57.1793 54.1635 57.2489 54.1635 57.2837C54.1635 58.1102 54.0011 59.0556 53.2413 59.2963C53.2181 59.2963 53.2181 59.3456 53.2413 59.3427C54.1664 59.2557 54.3549 58 54.2302 57.2112Z" fill="#263238"/>
<path d="M53.5341 56.3151C52.2088 56.1556 51.9855 58.8149 53.2122 58.9657C54.4389 59.1165 54.6448 56.4514 53.5341 56.3151Z" fill="#263238"/>
<path d="M58.844 57.6259C58.844 57.594 58.9049 57.6694 58.902 57.7042C58.8063 58.5249 58.8353 59.4819 59.5574 59.8183C59.5806 59.8183 59.5748 59.8705 59.5574 59.8647C58.6468 59.6588 58.6207 58.3886 58.844 57.6259Z" fill="#263238"/>
<path d="M59.653 56.84C60.987 56.84 60.8652 59.5196 59.6298 59.508C58.3944 59.4964 58.5336 56.8168 59.653 56.84Z" fill="#263238"/>
<path d="M52.6582 54.5548C53.0216 54.5147 53.3827 54.4557 53.7399 54.3779C54.1546 54.3054 54.491 54.2909 54.81 53.9864C54.8907 53.8915 54.9375 53.7726 54.9433 53.6482C54.9491 53.5238 54.9134 53.401 54.8419 53.2991C54.5084 52.8786 53.9719 52.8409 53.476 52.9076C52.9676 52.9577 52.4961 53.1955 52.1536 53.5746C51.7882 53.9603 52.1652 54.5867 52.6582 54.5548Z" fill="#263238"/>
<path d="M61.1379 55.4625C60.7801 55.3849 60.4267 55.2881 60.0794 55.1725C59.6763 55.0536 59.3428 55.0014 59.0615 54.665C58.9943 54.5608 58.9623 54.4379 58.9702 54.3142C58.978 54.1905 59.0252 54.0726 59.105 53.9777C59.482 53.5978 60.0127 53.6181 60.5057 53.7399C61.0051 53.847 61.4473 54.1352 61.7469 54.549C61.8092 54.6471 61.8417 54.7613 61.8405 54.8776C61.8392 54.9938 61.8042 55.1072 61.7397 55.204C61.6752 55.3007 61.584 55.3767 61.4771 55.4226C61.3703 55.4685 61.2524 55.4823 61.1379 55.4625Z" fill="#263238"/>
<path d="M51.8753 64.4873C52.0406 64.7077 52.1972 65.0006 52.4901 65.0673C52.7953 65.107 53.1055 65.0823 53.4007 64.9948C53.4065 64.9935 53.4126 64.994 53.4182 64.9963C53.4237 64.9986 53.4284 65.0026 53.4316 65.0077C53.4348 65.0128 53.4363 65.0188 53.4359 65.0248C53.4356 65.0308 53.4334 65.0365 53.4297 65.0412C53.2888 65.1848 53.1118 65.2876 52.9172 65.3387C52.7227 65.3897 52.5179 65.3871 52.3248 65.3312C52.1632 65.2642 52.0256 65.15 51.9299 65.0036C51.8342 64.8572 51.7848 64.6854 51.7883 64.5105C51.7854 64.4612 51.8492 64.4554 51.8753 64.4873Z" fill="#263238"/>
<path d="M53.1019 62.1673C53.2611 62.5222 53.4919 62.8403 53.7799 63.1018C54.0678 63.3633 54.4067 63.5625 54.7752 63.6869C55.0957 63.7994 55.4306 63.8658 55.7699 63.8841C55.8346 63.8884 55.8995 63.8884 55.9642 63.8841H56.1469C56.1918 63.8821 56.2349 63.8654 56.2694 63.8366C56.304 63.8078 56.3282 63.7685 56.3383 63.7246C56.3423 63.6967 56.3423 63.6684 56.3383 63.6405V63.568C56.4485 62.9416 56.5326 61.973 56.5326 61.973C56.7443 62.1238 57.8376 62.8285 57.8695 62.495C58.116 59.7487 58.3915 56.695 58.058 53.9052C58.0545 53.8874 58.0449 53.8713 58.0309 53.8598C58.0169 53.8482 57.9993 53.8419 57.9811 53.8419C57.9629 53.8419 57.9453 53.8482 57.9313 53.8598C57.9173 53.8713 57.9077 53.8874 57.9043 53.9052C57.5621 56.5384 57.6868 59.2122 57.3852 61.8599C57.0314 61.6627 56.4601 61.306 56.1295 61.2654C56.0367 61.2654 56.0019 63.1359 55.9294 63.4143C55.9313 63.4239 55.9313 63.4337 55.9294 63.4433C54.8506 63.4172 54.1024 62.9793 53.1802 62.1151C53.1367 62.06 53.07 62.0948 53.1019 62.1673Z" fill="#263238"/>
<path d="M55.4452 63.51C55.0326 63.9081 54.5241 64.1928 53.9691 64.3365C53.6647 64.4043 53.3468 64.3769 53.0585 64.2582C52.4292 63.9856 52.5045 63.3882 52.7017 62.8894C52.8084 62.6276 52.9456 62.3794 53.1107 62.1499C53.7247 62.8396 54.5423 63.3159 55.4452 63.51Z" fill="#263238"/>
<path d="M53.9691 64.3336C53.6647 64.4014 53.3468 64.374 53.0585 64.2553C52.4292 63.9827 52.5045 63.3853 52.7017 62.8865C53.389 63.0634 54.0126 63.6434 53.9691 64.3336Z" fill="#FF98B9"/>
<path d="M42.1718 56.0425C43.8132 56.782 45.704 54.4794 46.3072 53.4789C46.9104 52.4784 47.2497 47.5919 48.3372 46.1187C49.4247 44.6455 51.3329 44.0278 52.6872 44.6687C54.0415 45.3096 55.5727 47.4324 56.6254 47.4962C57.6781 47.56 58.2755 45.3473 59.0005 45.4662C60.5926 45.7098 62.0513 50.9066 62.0716 52.6959C62.0716 52.6959 63.5825 44.1699 55.3581 42.3632C47.9689 40.7392 44.5962 44.6832 43.6044 46.8321C41.6817 50.924 42.1718 56.0425 42.1718 56.0425Z" fill="#263238"/>
<path d="M51.8405 61.306C51.1768 61.187 50.5599 60.8841 50.0598 60.4318C49.5598 59.9795 49.1968 59.3959 49.012 58.7474C48.8273 58.0989 48.8284 57.4116 49.015 56.7637C49.2017 56.1158 49.5664 55.5333 50.0678 55.0824C50.5692 54.6316 51.1871 54.3306 51.8511 54.2136C52.5151 54.0966 53.1987 54.1683 53.824 54.4206C54.4492 54.673 54.9911 55.0957 55.388 55.6409C55.7848 56.186 56.0207 56.8315 56.0687 57.5041C56.1357 58.4564 55.8222 59.3964 55.197 60.1179C54.5718 60.8394 53.6859 61.2833 52.7337 61.3524C52.4352 61.3751 52.135 61.3595 51.8405 61.306ZM53.0295 54.6882C52.7739 54.644 52.514 54.6303 52.2552 54.6476C51.4641 54.7049 50.7246 55.0616 50.1872 55.645C49.6499 56.2285 49.3552 56.9948 49.363 57.788C49.3709 58.5811 49.6809 59.3415 50.2297 59.9141C50.7786 60.4867 51.5251 60.8287 52.3172 60.8702C53.1093 60.9117 53.8874 60.6498 54.4931 60.1377C55.0989 59.6255 55.4866 58.9018 55.5774 58.1138C55.6682 57.3259 55.4552 56.5329 54.9819 55.8965C54.5085 55.26 53.8103 54.8279 53.0295 54.6882Z" fill="#EBEBEB"/>
<path d="M60.091 61.77C58.7367 61.5264 57.7536 59.914 57.8696 58.0377C57.9094 57.1408 58.2288 56.2789 58.7831 55.5727C59.0024 55.2544 59.3002 54.9981 59.6477 54.8289C59.9952 54.6596 60.3806 54.5831 60.7664 54.6068C61.1522 54.6304 61.5254 54.7534 61.8496 54.9638C62.1739 55.1742 62.4382 55.4649 62.6169 55.8076C63.0806 56.5762 63.2925 57.4705 63.223 58.3654C63.1012 60.349 61.802 61.886 60.323 61.7961C60.2453 61.7916 60.1678 61.7829 60.091 61.77ZM60.9175 55.1C60.8573 55.0878 60.7962 55.0801 60.7348 55.0768C60.4275 55.0724 60.1236 55.1417 59.8486 55.279C59.5736 55.4162 59.3356 55.6174 59.1543 55.8656C58.6647 56.494 58.3829 57.2592 58.3481 58.0551C58.2437 59.7748 59.1398 61.2306 60.3549 61.306C61.57 61.3814 62.6372 60.0416 62.7416 58.3248C62.8066 57.531 62.621 56.7369 62.2109 56.0541C62.0741 55.8134 61.8883 55.6041 61.6655 55.4398C61.4427 55.2754 61.1879 55.1597 60.9175 55.1Z" fill="#EBEBEB"/>
<path d="M55.9238 57.913L55.6338 57.5244C56.2138 57.101 57.5043 56.5616 58.325 57.5563L57.9538 57.8608C57.223 56.9705 55.9702 57.8753 55.9238 57.913Z" fill="#EBEBEB"/>
<path d="M40.716 58.0667L40.3042 57.8202C40.4173 57.6259 41.4642 55.9323 42.543 55.8221C43.5551 55.7235 49.0941 56.5152 49.3667 56.5587L49.2913 57.0343C47.4556 56.7443 43.3724 56.2252 42.5894 56.3035C41.876 56.3731 40.9944 57.5998 40.716 58.0667Z" fill="#EBEBEB"/>
<path d="M44.6021 57.13C44.6021 57.13 42.7461 52.7394 40.8089 53.3223C38.8717 53.9052 39.6982 59.8705 41.5716 61.0624C41.8012 61.2317 42.0628 61.3528 42.3404 61.4184C42.6181 61.4841 42.9061 61.4929 43.1873 61.4444C43.4685 61.396 43.7369 61.2911 43.9766 61.1363C44.2162 60.9814 44.422 60.7797 44.5818 60.5433L44.6021 57.13Z" fill="#D3766A"/>
<path d="M41.0873 55.0391C41.0554 55.0391 41.0409 55.071 41.067 55.0913C42.3691 55.9613 42.8389 57.4577 43.0709 58.9396C42.7577 58.3219 42.2444 57.9101 41.4266 58.2639C41.386 58.2813 41.4092 58.348 41.4498 58.348C41.7177 58.3217 41.9872 58.3789 42.2214 58.5119C42.4556 58.6448 42.6429 58.8469 42.7577 59.0904C42.9459 59.4989 43.0888 59.9268 43.184 60.3664C43.2246 60.5085 43.474 60.4911 43.4537 60.3345C43.4523 60.322 43.4523 60.3093 43.4537 60.2968C43.8713 58.4872 43.0013 55.6394 41.0873 55.0391Z" fill="#263238"/>
<path d="M51.62 73.6861L48.0733 79.7268L40.5536 70.5976L38.3525 73.4164C38.3525 73.4164 44.9355 86.5737 45.0399 86.0169L48.2125 80.9709L51.6664 85.0454L52.2754 75.7422L51.62 73.6861Z" fill="#FFC727"/>
<path d="M52.2379 80.4634C52.2843 78.9235 52.3771 77.3749 52.3481 75.8234C52.3481 75.7683 52.2611 75.7364 52.2437 75.7973C51.7768 77.2473 51.6318 83.1314 51.4868 84.5321L51.4694 84.5147C51.3273 84.3407 48.2504 80.9129 48.2127 80.9593C47.5544 81.7452 45.2286 85.4195 45.0633 85.7588C44.0222 83.6679 39.5533 75.3942 38.2715 73.3903C38.2338 73.3323 38.1439 73.3671 38.17 73.4338C39.0574 75.6204 44.8139 86.5215 44.9125 86.5041C44.9734 86.5592 47.8589 82.0381 48.2359 81.1681C48.7405 81.896 51.8116 85.724 51.8435 85.4978C52.0672 83.8282 52.1989 82.1475 52.2379 80.4634Z" fill="#263238"/>
<path d="M94.2733 127.148H48.2793V129.004H94.2733V127.148Z" fill="#455A64"/>
<path d="M73.7297 127.148H48.2793V129.004H73.7297V127.148Z" fill="#A6A6A6"/>
<path d="M72.9583 129.001H113.268L118.967 101.622H78.6539L72.9583 129.001Z" fill="#A6A6A6"/>
<path d="M74.7854 129.001H115.098L120.794 101.622H80.481L74.7854 129.001Z" fill="#C7C7C7"/>
<path d="M95.1026 115.925C95.0573 116.264 95.0861 116.609 95.1869 116.937C95.2877 117.264 95.4581 117.566 95.6866 117.821C95.915 118.076 96.196 118.278 96.5102 118.415C96.8244 118.551 97.1643 118.618 97.5067 118.61C98.2418 118.594 98.9465 118.314 99.4918 117.82C100.037 117.327 100.387 116.654 100.476 115.925C100.522 115.585 100.493 115.24 100.392 114.912C100.291 114.585 100.121 114.283 99.8925 114.028C99.6641 113.772 99.3832 113.569 99.069 113.433C98.7548 113.296 98.4148 113.229 98.0722 113.236C97.3367 113.253 96.6317 113.533 96.0863 114.027C95.5409 114.521 95.1917 115.194 95.1026 115.925Z" fill="#EBEBEB"/>
<path d="M16.9623 38.7121C17.1777 40.7831 17.9645 42.7534 19.2349 44.4031C20.5052 46.0528 22.2092 47.3169 24.1564 48.0543C26.1037 48.7916 28.2175 48.9731 30.262 48.5786C32.3064 48.184 34.2009 47.229 35.734 45.82L41.3542 46.6465L38.5412 41.7861C39.1852 40.2046 39.4602 38.497 39.3454 36.7933C39.2305 35.0895 38.7287 33.4343 37.8782 31.9535C37.0277 30.4728 35.8509 29.2054 34.4371 28.2477C33.0233 27.2899 31.4098 26.6671 29.7192 26.4265C28.0286 26.1859 26.3054 26.3338 24.6805 26.8591C23.0557 27.3844 21.5719 28.2731 20.3421 29.4578C19.1122 30.6425 18.1686 32.092 17.583 33.696C16.9973 35.3001 16.7851 37.0166 16.9623 38.715V38.7121Z" fill="white"/>
<path d="M20.3262 29.435C21.5492 28.2261 23.0344 27.3152 24.6664 26.773C26.2984 26.2309 28.0333 26.072 29.7367 26.3088C31.452 26.5334 33.093 27.1485 34.5333 28.1068C36.7135 29.5638 38.3234 31.7292 39.0907 34.2367C39.858 36.7442 39.7356 39.4397 38.7441 41.8673V41.673L41.5397 46.5421L41.7456 46.9017L41.3396 46.8408L35.7252 45.9708L35.8557 45.9302C34.2951 47.3441 32.3707 48.2943 30.2993 48.6736C29.7864 48.7697 29.2665 48.824 28.7449 48.836C28.2248 48.8641 27.7033 48.8544 27.1847 48.807C25.1044 48.6033 23.1201 47.8318 21.4485 46.5769C21.0328 46.2671 20.6367 45.932 20.2624 45.5735C19.9011 45.2066 19.5613 44.8193 19.2445 44.4135C17.5644 42.2156 16.7481 39.4782 16.9501 36.7191C17.1521 33.9599 18.3584 31.3706 20.3407 29.4408L20.3262 29.435ZM19.2648 44.37C19.5854 44.7778 19.9312 45.1653 20.3001 45.53C20.6657 45.8871 21.0531 46.2213 21.4601 46.5305C22.2874 47.145 23.2011 47.6337 24.1716 47.9805C25.1356 48.339 26.1448 48.5615 27.1702 48.6417C27.6819 48.6765 28.1954 48.6765 28.7072 48.6417C29.2198 48.6206 29.7299 48.5586 30.2326 48.4561C32.2487 48.0503 34.1117 47.0902 35.6121 45.6837L35.6672 45.6315H35.7455L41.3715 46.4203L41.1685 46.7103L38.341 41.8615L38.2888 41.7687L38.3294 41.6701C38.9531 40.1174 39.2226 38.445 39.1182 36.7749C39.0064 35.1146 38.5217 33.5008 37.7001 32.0537C36.8603 30.6006 35.7132 29.3486 34.339 28.3852C32.9527 27.4276 31.3654 26.8006 29.699 26.5524C27.4971 26.2116 25.2436 26.5408 23.2314 27.4974C21.2191 28.4539 19.541 29.9936 18.4151 31.9163C17.2893 33.839 16.7677 36.0559 16.9182 38.2788C17.0687 40.5018 17.8843 42.6282 19.259 44.3816L19.2648 44.37Z" fill="#263238"/>
<path d="M26.7468 43.8886L21.9473 39.0311L23.5597 37.439L26.364 40.2752L32.1872 31.146L34.0983 32.364L26.7468 43.8886Z" fill="#FFC727"/>
</svg>
