<svg width="154" height="203" viewBox="0 0 154 203" fill="none" xmlns="http://www.w3.org/2000/svg">
<path d="M-32.7849 136.198L-33.6022 134.94L-36.1177 136.575L-35.3003 137.833L-34.0426 137.015L-32.7849 136.198ZM10.0413 142.113L8.86841 141.178L10.0413 142.113ZM80.0309 118.949L81.1166 119.984L80.0309 118.949ZM-34.0426 137.015L-35.3003 137.833C-34.5135 139.043 -33.5955 140.312 -32.5612 141.587L-31.3963 140.642L-30.2314 139.697C-31.2003 138.503 -32.0563 137.319 -32.7849 136.198L-34.0426 137.015ZM-25.0618 147.009L-26.0053 148.175C-23.5966 150.123 -20.8949 151.843 -17.9714 153.048L-17.4 151.661L-16.8286 150.274C-19.4303 149.202 -21.8849 147.649 -24.1183 145.842L-25.0618 147.009ZM-8.63306 153.326L-8.57759 154.825C-5.55619 154.713 -2.45207 153.921 0.664568 152.265L-0.0391514 150.94L-0.74287 149.616C-3.46807 151.064 -6.12998 151.732 -8.68853 151.827L-8.63306 153.326ZM7.0599 145.495L8.1301 146.546C9.16412 145.493 10.1927 144.329 11.2143 143.048L10.0413 142.113L8.86841 141.178C7.90663 142.384 6.9462 143.47 5.98971 144.444L7.0599 145.495ZM10.0413 142.113L11.2143 143.048C12.2111 141.797 13.1578 140.566 14.056 139.354L12.8511 138.461L11.6461 137.568C10.7693 138.75 9.84397 139.954 8.86841 141.178L10.0413 142.113ZM18.0155 130.872L19.2917 131.66C21.0657 128.788 22.5467 126.052 23.7607 123.46L22.4024 122.824L21.044 122.188C19.8832 124.666 18.4582 127.301 16.7393 130.084L18.0155 130.872ZM25.6172 114.226L27.0655 114.616C28.0321 111.033 28.393 107.831 28.2306 105.067L26.7332 105.154L25.2358 105.242C25.3755 107.62 25.0701 110.494 24.169 113.835L25.6172 114.226ZM23.254 96.9358L24.2089 95.779C22.7734 94.594 21.0425 93.9251 19.1508 93.7938L19.0469 95.2902L18.943 96.7865C20.24 96.8766 21.3686 97.3244 22.2991 98.0926L23.254 96.9358ZM19.0469 95.2902L19.1508 93.7938C17.1912 93.6577 15.4071 94.4969 13.9185 95.8306L14.9194 96.9478L15.9203 98.065C17.0047 97.0935 18.0253 96.7228 18.943 96.7865L19.0469 95.2902ZM10.3506 104.77L8.92681 104.298C8.00132 107.091 7.37962 110.28 7.16585 113.647L8.66283 113.742L10.1598 113.837C10.3583 110.711 10.9347 107.776 11.7745 105.242L10.3506 104.77ZM9.1527 122.862L7.67524 123.121C8.2147 126.197 9.14339 129.277 10.5424 132.208L11.8961 131.562L13.2498 130.916C11.98 128.255 11.1276 125.44 10.6302 122.603L9.1527 122.862ZM17.0443 139.084L15.957 140.118C17.0389 141.256 18.2323 142.331 19.5437 143.327L20.4514 142.133L21.3591 140.939C20.1772 140.041 19.1037 139.074 18.1315 138.051L17.0443 139.084ZM20.4514 142.133L19.5437 143.327C20.8179 144.296 22.1286 145.11 23.4701 145.779L24.1396 144.437L24.809 143.094C23.6397 142.511 22.4881 141.797 21.3591 140.939L20.4514 142.133ZM32.4918 146.681L32.3908 148.177C35.4033 148.381 38.4516 148.044 41.4762 147.306L41.1208 145.849L40.7653 144.392C37.985 145.07 35.2476 145.363 32.5929 145.184L32.4918 146.681ZM49.2973 142.9L49.9338 144.259C52.5791 143.019 55.183 141.548 57.709 139.933L56.9008 138.669L56.0927 137.405C53.6566 138.963 51.1677 140.367 48.6608 141.542L49.2973 142.9ZM63.9978 133.631L64.9184 134.816C67.2901 132.972 69.555 131.059 71.6759 129.162L70.6758 128.044L69.6758 126.926C67.5982 128.784 65.3865 130.652 63.0772 132.447L63.9978 133.631ZM76.9969 122.056L78.0573 123.117C79.1491 122.026 80.1717 120.975 81.1166 119.984L80.0309 118.949L78.9451 117.914C78.0153 118.889 77.0096 119.923 75.9366 120.995L76.9969 122.056ZM80.0309 118.949L81.1166 119.984C82.1219 118.929 83.1637 117.686 84.22 116.285L83.0224 115.382L81.8247 114.479C80.8232 115.807 79.8556 116.958 78.9451 117.914L80.0309 118.949ZM88.0996 107.574L89.4027 108.317C90.8801 105.725 92.3307 102.891 93.6942 99.8822L92.3279 99.2631L90.9617 98.644C89.6356 101.57 88.2269 104.322 86.7965 106.831L88.0996 107.574ZM95.8017 90.6098L97.217 91.1066C98.2508 88.1615 99.1702 85.1217 99.93 82.0366L98.4736 81.6778L97.0171 81.3191C96.282 84.3037 95.3908 87.2513 94.3863 90.113L95.8017 90.6098ZM100.196 72.5172L101.684 72.7058C102.089 69.5153 102.281 66.3223 102.21 63.181L100.71 63.2149L99.2105 63.2488C99.2777 66.2235 99.0962 69.2667 98.7083 72.3287L100.196 72.5172ZM99.6218 53.9707L101.085 53.641C100.728 52.0581 100.282 50.5043 99.7383 48.9884L98.3264 49.495L96.9146 50.0015C97.4145 51.3951 97.8272 52.8303 98.1585 54.3005L99.6218 53.9707Z" fill="#F8F8F8"/>
<path d="M93.1513 37.4796C93.1477 37.4907 93.1494 37.503 93.1459 37.5141L90.4631 44.8419C90.3142 45.2533 90.5123 45.7428 90.9056 45.9347C90.9095 45.9364 90.9128 45.9366 90.9162 45.9369C91.0061 45.9855 91.1055 46.0139 91.2075 46.0202C91.3095 46.0264 91.4117 46.0102 91.5068 45.9729L101.216 42.0422C101.312 42.0016 101.397 41.9404 101.467 41.863C101.537 41.7856 101.588 41.6939 101.619 41.5943L101.623 41.5959C101.692 41.391 101.686 41.1678 101.605 40.9671C101.524 40.7665 101.373 40.6018 101.18 40.5031L94.1329 37.0822C94.0436 37.0357 93.9453 37.0091 93.8447 37.0043C93.7441 36.9996 93.6437 37.0166 93.5504 37.0544C93.4571 37.0922 93.3731 37.1498 93.3042 37.2232C93.2353 37.2966 93.1831 37.384 93.1513 37.4796Z" fill="#F8F8F8"/>
</svg>
