<svg width="145" height="145" viewBox="0 0 145 145" fill="none" xmlns="http://www.w3.org/2000/svg">
<path d="M111.351 117.317H124.021V113.283H111.351V117.317Z" fill="#EBEBEB"/>
<path d="M96.6192 51.1966H109.289V47.1627H96.6192V51.1966Z" fill="#EBEBEB"/>
<path d="M118.421 122.403C120.527 122.374 125.915 122.302 127.945 122.281H131.092L130.958 122.415V118.381L131.103 118.526C128.998 118.526 123.633 118.506 121.6 118.482L118.433 118.451L118.503 118.381L118.433 122.415L118.421 122.403ZM118.421 122.403L118.352 118.369V118.303H118.421C120.002 118.288 123.177 118.256 124.755 118.248L131.092 118.227H131.237V118.372L131.222 122.406V122.537H131.08H127.89C125.86 122.519 120.492 122.444 118.41 122.418L118.421 122.403Z" fill="#EBEBEB"/>
<path d="M64.8613 91.785C66.9667 91.756 72.355 91.6835 74.3879 91.6632H77.5315L77.3981 91.7966V87.7627L77.5431 87.9077C75.4406 87.9077 70.0726 87.8874 68.0397 87.8642L64.8729 87.8323L64.9425 87.7627L64.8729 91.7966L64.8613 91.785ZM64.8613 91.785L64.7917 87.7511V87.6815H64.8613C66.4418 87.667 69.6173 87.6351 71.1978 87.6264L77.5315 87.6061H77.6765V87.7511V91.785V91.93H77.5459H74.3559C72.3259 91.9126 66.961 91.8372 64.8759 91.8111L64.8613 91.785Z" fill="#EBEBEB"/>
<path d="M71.92 96.86C74.0254 96.831 79.4136 96.7585 81.4465 96.7411L84.5901 96.7266L84.4596 96.86V92.8261L84.6046 92.9711C82.5021 92.9711 77.1342 92.9508 75.1013 92.9276L71.92 92.9044L71.9896 92.8348L71.92 96.86ZM71.92 96.86L71.8533 92.8261V92.7594H71.92C73.5005 92.742 76.676 92.713 78.2565 92.7014L84.5901 92.6811H84.7351V92.8261V96.86V96.9934H84.6017L81.4117 96.9789C79.3817 96.9615 74.0167 96.889 71.9316 96.86H71.92Z" fill="#EBEBEB"/>
<path d="M78.9698 91.785H91.6399V87.7511H78.9698V91.785Z" fill="#EBEBEB"/>
<path d="M13.9083 122.403H26.5784V118.369H13.9083V122.403Z" fill="#EBEBEB"/>
<path d="M20.9786 17.0636H33.6487V13.0297L20.9786 13.0297V17.0636Z" fill="#EBEBEB"/>
<path d="M13.9199 22.1473C16.0253 22.1183 21.4135 22.0458 23.4464 22.0284H26.59L26.4595 22.1589V18.1279L26.6045 18.2729C24.502 18.2729 19.1341 18.2497 17.1012 18.2265L13.9199 18.183L13.9895 18.1163L13.9199 22.1473ZM13.9199 22.1473L13.8503 18.1163V18.0467H13.9199C15.5004 18.0293 18.6759 18.0003 20.2564 17.9916L26.5784 17.98H26.7234V18.125V22.156V22.2894H26.59H23.4C21.37 22.2691 16.005 22.1966 13.9199 22.1676V22.1473Z" fill="#EBEBEB"/>
<path d="M111.36 17.0636C113.465 17.0346 118.853 16.9621 120.883 16.9447H124.03L123.897 17.0781V13.0442L124.042 13.1892C121.936 13.1892 116.571 13.1689 114.538 13.1457L111.36 13.0993L111.427 13.0297L111.36 17.0636ZM111.36 17.0636L111.29 13.0297V12.963H111.36C112.94 12.9456 116.113 12.9166 117.693 12.905L124.03 12.8847H124.175V13.0297L124.16 17.0636V17.197H124.03H120.84C118.81 17.1796 113.442 17.1071 111.36 17.0781V17.0636Z" fill="#EBEBEB"/>
<path d="M57.0488 27.1556H15.7615V73.2221H57.0488V27.1556Z" fill="#DBDBDB"/>
<path d="M54.3315 29.8758H18.4817V70.5251H54.3315V29.8758Z" fill="#EBEBEB"/>
<path d="M34.3562 37.062H21.7209V52.0347H34.3562V37.062Z" fill="white"/>
<path d="M28.4953 38.0828C28.4953 38.1729 28.4686 38.2609 28.4186 38.3358C28.3686 38.4106 28.2974 38.469 28.2143 38.5035C28.1311 38.5379 28.0395 38.5469 27.9512 38.5294C27.8629 38.5118 27.7817 38.4684 27.7181 38.4048C27.6544 38.3411 27.611 38.26 27.5935 38.1716C27.5759 38.0833 27.5849 37.9918 27.6194 37.9086C27.6538 37.8254 27.7122 37.7543 27.7871 37.7042C27.8619 37.6542 27.95 37.6275 28.04 37.6275C28.0999 37.6271 28.1593 37.6386 28.2147 37.6614C28.2701 37.6841 28.3205 37.7177 28.3628 37.76C28.4052 37.8024 28.4387 37.8527 28.4614 37.9081C28.4842 37.9635 28.4957 38.0229 28.4953 38.0828Z" fill="#455A64"/>
<path d="M24.1279 40.0635C25.4039 39.9649 26.6828 39.9591 27.9588 39.9446C29.2348 39.9301 30.5137 39.962 31.7926 40.0635C30.5137 40.1621 29.2377 40.1679 27.9588 40.1824C26.6799 40.1969 25.4039 40.1621 24.1279 40.0635Z" fill="#EBEBEB"/>
<path d="M24.1279 41.2467C25.5125 41.0882 26.9107 41.0882 28.2952 41.2467C26.9107 41.4052 25.5125 41.4052 24.1279 41.2467Z" fill="#EBEBEB"/>
<path d="M24.1279 42.4299C25.0128 42.3454 25.9013 42.3058 26.7901 42.311C27.679 42.3058 28.5675 42.3454 29.4523 42.4299C28.5649 42.5227 27.6775 42.543 26.7901 42.5488C25.9027 42.5546 25.0153 42.5227 24.1279 42.4299Z" fill="#EBEBEB"/>
<path d="M24.1279 43.6131C25.2386 43.5203 26.3464 43.4971 27.4571 43.4942C28.5678 43.4913 29.6785 43.5203 30.7892 43.6131C29.6785 43.7059 28.5678 43.7262 27.4571 43.732C26.3464 43.7378 25.2299 43.7059 24.1279 43.6131Z" fill="#EBEBEB"/>
<path d="M24.1279 44.7963C25.0907 44.7035 26.0564 44.6803 27.0279 44.6774C27.9994 44.6745 28.9564 44.7035 29.9279 44.7963C28.9651 44.8891 27.9994 44.9094 27.0279 44.9152C26.0564 44.921 25.0907 44.8891 24.1279 44.7963Z" fill="#EBEBEB"/>
<path d="M24.1279 45.9795C25.3604 45.8809 26.5958 45.8751 27.8312 45.8606C29.0666 45.8461 30.302 45.8809 31.5345 45.9795C30.302 46.0781 29.0666 46.0839 27.8312 46.0984C26.5958 46.1129 25.3604 46.0781 24.1279 45.9795Z" fill="#EBEBEB"/>
<path d="M24.1279 47.1627C24.9227 47.0797 25.7214 47.04 26.5204 47.0438C27.3195 47.0386 28.1183 47.0783 28.9129 47.1627C27.3219 47.3212 25.719 47.3212 24.1279 47.1627Z" fill="#EBEBEB"/>
<path d="M24.1279 48.3459C25.4039 48.2473 26.6828 48.2415 27.9588 48.227C29.2348 48.2125 30.5137 48.2473 31.7926 48.3459C30.5137 48.4445 29.2377 48.4503 27.9588 48.4648C26.6799 48.4793 25.4039 48.4445 24.1279 48.3459Z" fill="#EBEBEB"/>
<path d="M24.1279 49.5291C25.4039 49.4305 26.6828 49.4247 27.9588 49.4102C29.2348 49.3957 30.5137 49.4305 31.7926 49.5291C30.5137 49.6277 29.2377 49.6335 27.9588 49.648C26.6799 49.6625 25.4039 49.6277 24.1279 49.5291Z" fill="#EBEBEB"/>
<path d="M51.2341 46.4H36.2817V64.1161H51.2341V46.4Z" fill="white"/>
<path d="M44.2133 48.7896C44.2133 48.8797 44.1866 48.9677 44.1366 49.0426C44.0866 49.1174 44.0155 49.1758 43.9323 49.2102C43.8491 49.2447 43.7575 49.2537 43.6692 49.2362C43.5809 49.2186 43.4998 49.1752 43.4361 49.1116C43.3724 49.0479 43.3291 48.9668 43.3115 48.8784C43.2939 48.7901 43.3029 48.6986 43.3374 48.6154C43.3719 48.5322 43.4302 48.4611 43.5051 48.411C43.58 48.361 43.668 48.3343 43.758 48.3343C43.8786 48.3351 43.9939 48.3833 44.0791 48.4685C44.1644 48.5537 44.2126 48.6691 44.2133 48.7896Z" fill="#455A64"/>
<path d="M38.3757 50.8196C38.9237 50.7367 39.4774 50.697 40.0316 50.7007C40.5869 50.6955 41.1416 50.7353 41.6904 50.8196C40.5912 50.9783 39.4749 50.9783 38.3757 50.8196Z" fill="#EBEBEB"/>
<path d="M38.3757 52.1565C39.0879 52.072 39.8046 52.0323 40.5217 52.0376C41.2389 52.0309 41.9557 52.0706 42.6677 52.1565C41.9555 52.2395 41.2388 52.2792 40.5217 52.2754C39.8047 52.2778 39.0881 52.2381 38.3757 52.1565Z" fill="#EBEBEB"/>
<path d="M38.3757 53.4905C39.6963 53.332 41.0311 53.332 42.3516 53.4905C41.0311 53.649 39.6963 53.649 38.3757 53.4905Z" fill="#EBEBEB"/>
<path d="M38.3757 54.8274C39.0346 54.7445 39.6982 54.7047 40.3622 54.7085C41.0273 54.7032 41.6919 54.7429 42.3516 54.8274C41.0311 54.9859 39.6963 54.9859 38.3757 54.8274Z" fill="#EBEBEB"/>
<path d="M38.3757 56.1614C38.9472 56.0795 39.524 56.0407 40.1012 56.0454C40.6834 56.0386 41.2652 56.0773 41.8412 56.1614C41.2654 56.2479 40.6835 56.2876 40.1012 56.2803C39.5239 56.2855 38.9469 56.2457 38.3757 56.1614Z" fill="#EBEBEB"/>
<path d="M38.3757 57.4983C39.8456 57.3398 41.3283 57.3398 42.7982 57.4983C42.0638 57.5827 41.3248 57.6224 40.5855 57.6172C39.8472 57.621 39.1094 57.5813 38.3757 57.4983Z" fill="#EBEBEB"/>
<path d="M38.3757 58.8352C39.5866 58.6767 40.813 58.6767 42.0239 58.8352C40.813 58.9937 39.5866 58.9937 38.3757 58.8352Z" fill="#EBEBEB"/>
<path d="M38.3757 60.1692C39.1357 60.0877 39.8995 60.048 40.6638 60.0503C41.4282 60.0465 42.1921 60.0862 42.9519 60.1692C42.1923 60.2551 41.4282 60.2948 40.6638 60.2881C39.8995 60.2933 39.1354 60.2536 38.3757 60.1692Z" fill="#EBEBEB"/>
<path d="M38.3757 61.5061C39.897 61.3476 41.4307 61.3476 42.9519 61.5061C42.1922 61.5905 41.4282 61.6302 40.6638 61.625C39.8995 61.6288 39.1356 61.5891 38.3757 61.5061Z" fill="#EBEBEB"/>
<path d="M44.9094 50.8196C45.6304 50.7366 46.3557 50.6968 47.0815 50.7007C47.8073 50.6956 48.5327 50.7353 49.2536 50.8196C47.8079 50.9786 46.3492 50.9786 44.9036 50.8196H44.9094Z" fill="#EBEBEB"/>
<path d="M44.9094 52.1565C45.3803 52.0723 45.858 52.0325 46.3362 52.0376C46.8155 52.0312 47.2943 52.071 47.7659 52.1565C47.2939 52.2391 46.8154 52.2789 46.3362 52.2754C45.8581 52.2776 45.3806 52.2378 44.9094 52.1565Z" fill="#EBEBEB"/>
<path d="M44.9094 53.4905C46.2668 53.332 47.6381 53.332 48.9955 53.4905C47.6381 53.649 46.2668 53.649 44.9094 53.4905Z" fill="#EBEBEB"/>
<path d="M44.9094 54.8274C45.5683 54.7445 46.2319 54.7047 46.8959 54.7085C47.561 54.7032 48.2256 54.7429 48.8853 54.8274C47.5648 54.9859 46.23 54.9859 44.9094 54.8274Z" fill="#EBEBEB"/>
<path d="M44.9094 56.1614C45.6305 56.0793 46.3558 56.0406 47.0815 56.0454C47.8073 56.0393 48.5327 56.078 49.2536 56.1614C48.5329 56.2472 47.8074 56.2869 47.0815 56.2803C46.3557 56.2856 45.6303 56.2459 44.9094 56.1614Z" fill="#EBEBEB"/>
<path d="M44.9094 57.4983C46.0553 57.3398 47.2175 57.3398 48.3633 57.4983C47.7873 57.5833 47.2055 57.6231 46.6233 57.6172C46.0499 57.6203 45.477 57.5806 44.9094 57.4983Z" fill="#EBEBEB"/>
<path d="M44.9094 58.8352C46.2668 58.6767 47.6381 58.6767 48.9955 58.8352C47.6381 58.9937 46.2668 58.9937 44.9094 58.8352Z" fill="#EBEBEB"/>
<path d="M44.9094 60.1692C45.4323 60.0877 45.9608 60.048 46.4899 60.0503C47.0191 60.0467 47.5477 60.0865 48.0704 60.1692C47.5481 60.2548 47.0192 60.2946 46.4899 60.2881C45.9607 60.2933 45.4319 60.2536 44.9094 60.1692Z" fill="#EBEBEB"/>
<path d="M44.9094 61.5061C45.9143 61.3476 46.9379 61.3476 47.9428 61.5061C47.4417 61.5902 46.9342 61.63 46.4261 61.625C45.9181 61.6288 45.4107 61.589 44.9094 61.5061Z" fill="#EBEBEB"/>
<path d="M40.8001 32.9469H33.1963V40.5507H40.8001V32.9469Z" fill="#C7C7C7"/>
<path d="M37.4506 33.7183C37.4506 33.8085 37.4239 33.8966 37.3737 33.9716C37.3235 34.0465 37.2523 34.1048 37.1689 34.1392C37.0855 34.1736 36.9938 34.1824 36.9054 34.1646C36.817 34.1468 36.7359 34.1032 36.6724 34.0392C36.6088 33.9753 36.5657 33.8939 36.5484 33.8053C36.5312 33.7168 36.5406 33.6252 36.5755 33.5421C36.6104 33.4589 36.6692 33.388 36.7445 33.3383C36.8198 33.2886 36.9081 33.2624 36.9982 33.263C37.0579 33.263 37.117 33.2748 37.172 33.2977C37.2271 33.3206 37.2771 33.3542 37.3192 33.3965C37.3612 33.4389 37.3945 33.4891 37.417 33.5443C37.4396 33.5995 37.451 33.6587 37.4506 33.7183Z" fill="#455A64"/>
<path d="M54.2966 29.8758H53.27V70.5686H54.2966V29.8758Z" fill="#C7C7C7"/>
<path d="M130.462 129.891C93.3422 130.071 51.6721 130.071 14.5376 129.891C51.6721 129.714 93.3277 129.714 130.462 129.891Z" fill="#263238"/>
<path d="M124.222 95.3694C118.52 100.949 117.552 109.579 118.764 117.146C118.796 117.317 119.054 117.27 119.054 117.108C119.054 115.385 119.002 113.68 119.007 111.981C119.036 111.902 119.062 111.83 119.094 111.752C120.582 110.67 121.951 109.449 122.798 107.773C123.749 105.902 124.123 103.788 124.851 101.834C124.918 101.648 124.72 101.703 124.59 101.799C121.11 104.357 120.017 107.106 119.022 110.789C119.042 108.866 119.244 106.949 119.625 105.064C120.373 101.584 121.855 98.1041 124.364 95.526C124.465 95.41 124.32 95.2708 124.222 95.3694Z" fill="#263238"/>
<path d="M125.28 96.0219C126.26 96.0538 126.875 97.6198 127.638 98.078C128.044 98.3216 128.438 98.3071 128.722 97.9069C129.479 96.8513 128.432 95.5463 127.464 94.8184C128.163 95.1084 128.74 95.6101 129.494 95.7522C129.949 95.8363 130.306 95.6681 130.41 95.2041C130.744 93.7541 128.937 93.1219 127.696 93.0929C128.296 92.6753 130.016 91.5385 129.105 90.9788C128.195 90.4191 126.156 92.0431 125.495 92.5767C124.526 93.3655 123.372 94.54 123.328 95.7667C123.282 97.2051 124.538 96.3206 125.28 96.0219Z" fill="#FFC727"/>
<path opacity="0.2" d="M125.28 96.0219C126.26 96.0538 126.875 97.6198 127.638 98.078C128.044 98.3216 128.438 98.3071 128.722 97.9069C129.479 96.8513 128.432 95.5463 127.464 94.8184C128.163 95.1084 128.74 95.6101 129.494 95.7522C129.949 95.8363 130.306 95.6681 130.41 95.2041C130.744 93.7541 128.937 93.1219 127.696 93.0929C128.296 92.6753 130.016 91.5385 129.105 90.9788C128.195 90.4191 126.156 92.0431 125.495 92.5767C124.526 93.3655 123.372 94.54 123.328 95.7667C123.282 97.2051 124.538 96.3206 125.28 96.0219Z" fill="black"/>
<path d="M125.007 96.2626C126.26 95.6826 128.67 96.512 128.873 96.0393C129.291 95.0736 127.365 94.4095 126.327 94.2819C127.284 94.0238 129.117 93.6091 129.059 92.6869C128.992 91.5617 126.248 92.5303 124.859 93.5946C123.119 94.9344 123.119 96.2278 123.409 96.4946C123.807 96.8426 124.801 96.3554 125.007 96.2626Z" fill="#FFC727"/>
<path opacity="0.1" d="M125.007 96.2626C126.26 95.6826 128.67 96.512 128.873 96.0393C129.291 95.0736 127.365 94.4095 126.327 94.2819C127.284 94.0238 129.117 93.6091 129.059 92.6869C128.992 91.5617 126.248 92.5303 124.859 93.5946C123.119 94.9344 123.119 96.2278 123.409 96.4946C123.807 96.8426 124.801 96.3554 125.007 96.2626Z" fill="black"/>
<path d="M111.241 94.83C117.148 100.189 118.433 108.779 117.52 116.38C117.494 116.554 117.23 116.516 117.23 116.354C117.166 114.634 117.151 112.929 117.082 111.23C117.047 111.151 117.018 111.082 116.986 111.003C115.458 109.98 114.045 108.811 113.135 107.17C112.111 105.334 111.656 103.24 110.855 101.314C110.78 101.129 110.983 101.175 111.116 101.268C114.678 103.69 115.887 106.398 117.021 110.035C116.928 108.114 116.653 106.206 116.2 104.336C115.33 100.877 113.706 97.4777 111.105 94.9866C111.091 94.967 111.085 94.9435 111.086 94.9198C111.088 94.8962 111.097 94.8736 111.113 94.8557C111.128 94.8378 111.149 94.8256 111.172 94.8209C111.196 94.8163 111.22 94.8195 111.241 94.83Z" fill="#263238"/>
<path d="M110.2 95.5086C109.223 95.5782 108.666 97.1674 107.921 97.6546C107.526 97.9127 107.132 97.9127 106.833 97.527C106.036 96.4975 107.025 95.1548 107.973 94.3892C107.286 94.7024 106.726 95.2302 105.978 95.4013C105.883 95.4364 105.781 95.4507 105.68 95.4432C105.579 95.4358 105.481 95.4068 105.392 95.3581C105.303 95.3094 105.226 95.2423 105.166 95.1612C105.105 95.0801 105.062 94.9869 105.041 94.888C104.655 93.4612 106.436 92.7507 107.674 92.6724C107.056 92.278 105.293 91.2079 106.186 90.6163C107.08 90.0247 109.173 91.5675 109.852 92.0663C110.852 92.8174 112.05 93.9484 112.143 95.1751C112.247 96.6164 110.96 95.7812 110.2 95.5086Z" fill="#FFC727"/>
<path opacity="0.2" d="M110.2 95.5086C109.223 95.5782 108.666 97.1674 107.921 97.6546C107.526 97.9127 107.132 97.9127 106.833 97.527C106.036 96.4975 107.025 95.1548 107.973 94.3892C107.286 94.7024 106.726 95.2302 105.978 95.4013C105.883 95.4364 105.781 95.4507 105.68 95.4432C105.579 95.4358 105.481 95.4068 105.392 95.3581C105.303 95.3094 105.226 95.2423 105.166 95.1612C105.105 95.0801 105.062 94.9869 105.041 94.888C104.655 93.4612 106.436 92.7507 107.674 92.6724C107.056 92.278 105.293 91.2079 106.186 90.6163C107.08 90.0247 109.173 91.5675 109.852 92.0663C110.852 92.8174 112.05 93.9484 112.143 95.1751C112.247 96.6164 110.96 95.7812 110.2 95.5086Z" fill="black"/>
<path d="M110.49 95.7406C109.214 95.2186 106.839 96.1292 106.619 95.6623C106.166 94.714 108.069 93.9774 109.098 93.8092C108.132 93.5888 106.282 93.2292 106.305 92.3215C106.331 91.1934 109.11 92.0547 110.536 93.0668C112.334 94.3399 112.372 95.6333 112.094 95.903C111.708 96.28 110.696 95.8247 110.49 95.7406Z" fill="#FFC727"/>
<path opacity="0.1" d="M110.49 95.7406C109.214 95.2186 106.839 96.1292 106.619 95.6623C106.166 94.714 108.069 93.9774 109.098 93.8092C108.132 93.5888 106.282 93.2292 106.305 92.3215C106.331 91.1934 109.11 92.0547 110.536 93.0668C112.334 94.3399 112.372 95.6333 112.094 95.903C111.708 96.28 110.696 95.8247 110.49 95.7406Z" fill="black"/>
<path d="M117.282 108.97C117.681 111.839 118.294 114.673 119.115 117.45C119.128 117.502 119.161 117.547 119.207 117.576C119.253 117.604 119.307 117.615 119.36 117.604C119.413 117.594 119.46 117.564 119.491 117.52C119.523 117.476 119.536 117.422 119.529 117.369C119.141 114.759 118.433 112.192 118.045 109.582C117.62 106.941 117.469 104.263 117.592 101.59C117.839 97.1877 119.042 92.5071 121.907 89.0648C121.968 88.9836 121.835 88.8676 121.771 88.943C116.02 95.6478 116.937 103.864 116.943 104.603C116.128 101.828 115.29 98.6493 112.21 95.8218C112.079 95.7 111.975 95.758 111.995 95.9668C112.546 101.111 113.979 103.797 116.963 106.552C117.047 107.358 117.16 108.17 117.282 108.97Z" fill="#263238"/>
<path d="M121.959 89.8304C122.992 89.3722 124.419 90.7004 125.439 90.7787C125.982 90.8251 126.382 90.6134 126.475 90.0566C126.73 88.5776 124.996 87.7366 123.615 87.4843C124.485 87.4292 125.355 87.6612 126.193 87.4321C126.71 87.2871 126.991 86.9333 126.869 86.3997C126.486 84.738 124.288 84.9816 122.989 85.5761C123.401 84.8395 124.616 82.7921 123.386 82.6761C122.157 82.5601 120.86 85.2658 120.446 86.1561C119.837 87.4582 119.228 89.2591 119.802 90.5583C120.469 92.0721 121.327 90.5235 121.959 89.8304Z" fill="#FFC727"/>
<path opacity="0.2" d="M121.959 89.8304C122.992 89.3722 124.419 90.7004 125.439 90.7787C125.982 90.8251 126.382 90.6134 126.475 90.0566C126.73 88.5776 124.996 87.7366 123.615 87.4843C124.485 87.4292 125.355 87.6612 126.193 87.4321C126.71 87.2871 126.991 86.9333 126.869 86.3997C126.486 84.738 124.288 84.9816 122.989 85.5761C123.401 84.8395 124.616 82.7921 123.386 82.6761C122.157 82.5601 120.86 85.2658 120.446 86.1561C119.837 87.4582 119.228 89.2591 119.802 90.5583C120.469 92.0721 121.327 90.5235 121.959 89.8304Z" fill="black"/>
<path d="M121.8 90.2248C122.815 89.001 125.727 88.6414 125.701 88.044C125.643 86.8347 123.314 87.116 122.171 87.5046C123.041 86.7535 124.726 85.4021 124.201 84.4741C123.563 83.3402 121.206 85.7269 120.301 87.5278C119.161 89.8014 119.822 91.1383 120.254 91.2601C120.834 91.4312 121.617 90.4249 121.8 90.2248Z" fill="#FFC727"/>
<path opacity="0.1" d="M121.8 90.2248C122.815 89.001 125.727 88.6414 125.701 88.044C125.643 86.8347 123.314 87.116 122.171 87.5046C123.041 86.7535 124.726 85.4021 124.201 84.4741C123.563 83.3402 121.206 85.7269 120.301 87.5278C119.161 89.8014 119.822 91.1383 120.254 91.2601C120.834 91.4312 121.617 90.4249 121.8 90.2248Z" fill="black"/>
<path d="M113.5 110.522L110.963 129.891H126.391C126.075 128.174 123.201 110.499 123.201 110.499L113.5 110.522Z" fill="#FFC727"/>
<path d="M128.847 42.9229H69.6521V45.9592H128.847V42.9229Z" fill="#455A64"/>
<path d="M74.5155 45.9592H72.3811V56.0019H74.5155V45.9592Z" fill="#455A64"/>
<path d="M74.5155 45.9592H72.3811V49.0622H74.5155V45.9592Z" fill="#263238"/>
<path d="M126.121 45.9592H123.987V56.0019H126.121V45.9592Z" fill="#455A64"/>
<path d="M126.121 45.9592H123.987V49.0622H126.121V45.9592Z" fill="#263238"/>
<path d="M121.774 24.94C121.779 27.4611 120.98 29.9183 119.494 31.9551C118.294 33.6083 116.689 34.9259 114.834 35.7816C112.979 36.6373 110.935 37.0026 108.898 36.8426C106.861 36.6825 104.9 36.0025 103.201 34.8674C101.502 33.7324 100.123 32.1804 99.1952 30.36C98.2677 28.5395 97.8229 26.5115 97.9033 24.47C97.9837 22.4284 98.5867 20.4417 99.6546 18.6998C100.722 16.958 102.219 15.5193 104.002 14.5215C105.785 13.5236 107.794 13 109.837 13.0007C110.165 13.0007 110.49 13.0007 110.812 13.0384C112.66 13.1872 114.448 13.7672 116.032 14.732C117.255 15.4762 118.335 16.4328 119.222 17.5566C119.489 17.896 119.738 18.2493 119.967 18.6151C121.152 20.5115 121.778 22.7037 121.774 24.94Z" fill="#455A64"/>
<path d="M112.415 30.5805C112.265 30.9836 112.517 30.9981 112.531 31.1605C112.546 31.3229 112.531 31.6448 112.047 32.1291C111.563 32.6134 110.76 32.5148 110.597 32.7091C110.435 32.9034 110.145 33.7618 109.745 34.046C109.344 34.3302 109.275 34.1649 108.706 34.2809C108.138 34.3969 107.703 35.1335 107.546 35.4844C107.39 35.8353 107.578 36.4211 107.178 36.4385C106.778 36.4559 106.598 35.5859 106.224 35.1161C105.905 34.6966 105.698 34.2025 105.624 33.6806C105.505 33.1267 105.69 31.9754 105.624 31.523C105.557 31.0706 104.353 30.2702 103.918 29.7163C103.483 29.1624 102.88 28.0633 102.915 27.6863C102.966 27.3293 103.144 27.0027 103.417 26.767C103.617 26.6162 103.533 26.5321 103.568 26.3987C103.602 26.2653 103.768 26.2305 103.8 26.0652C103.831 25.8999 103.701 25.3953 103.533 25.3112C103.365 25.2271 103.243 25.5113 103.15 25.462C103.057 25.4127 102.747 25.0618 102.631 25.027C102.515 24.9922 102.547 25.2445 102.379 24.9284C102.21 24.6123 102.129 23.8061 101.996 23.6727C101.862 23.5393 101.761 23.9076 101.445 23.6727C101.129 23.4378 100.992 22.9883 100.865 22.9216C100.737 22.8549 100.546 22.939 100.409 22.6693C100.273 22.3996 100.531 21.9182 100.409 21.9675C100.288 22.0168 100.03 22.4025 99.9629 22.0342C99.8962 21.6659 100.296 20.4305 100.23 19.7606C100.203 19.4118 100.245 19.0612 100.354 18.7288C100.463 18.3964 100.637 18.0887 100.865 17.8234C100.865 17.8234 100.931 17.4551 100.998 17.2202C101.065 16.9853 102.503 16.0602 102.669 15.7702C102.738 15.6206 102.778 15.4592 102.787 15.2946C104.834 13.7853 107.311 12.9722 109.855 12.9746C110.182 12.9746 110.507 12.9746 110.829 13.0123C110.838 13.0279 110.849 13.0425 110.861 13.0558C111.049 13.2807 111.302 13.441 111.586 13.514C112.009 13.6706 112.111 13.8707 112.021 14.0389C111.98 14.1082 111.921 14.1647 111.85 14.2021C111.778 14.2396 111.698 14.2563 111.618 14.2506C111.453 14.2506 111.296 14.1723 111.119 14.2825C110.942 14.3927 110.762 14.9959 110.539 15.0307C110.316 15.0655 109.892 14.4942 109.803 14.3289C109.713 14.1636 110.003 13.804 109.866 13.6358C109.73 13.4676 109.492 13.5024 109.112 13.4705C108.732 13.4386 107.854 13.5807 107.886 13.7257C107.918 13.8707 109.179 13.7025 109.211 13.9925C109.243 14.2825 108.289 14.7726 108.121 14.7291C107.952 14.6856 107.729 14.3956 107.485 14.3608C107.242 14.326 107.039 14.529 106.885 14.5522C106.731 14.5754 106.549 14.384 106.305 14.4275C106.062 14.471 106.015 14.674 105.893 14.7523C105.772 14.8306 105.482 14.8306 105.447 15.0075C105.412 15.1844 105.815 15.2975 105.917 15.399C106.018 15.5005 105.792 15.8891 105.893 15.979C105.995 16.0689 106.618 15.5092 106.763 15.3758C106.908 15.2424 107.053 14.6624 107.387 14.674C107.72 14.6856 107.833 15.254 107.944 15.3091C108.054 15.3642 108.3 15.1757 108.669 15.254C109.037 15.3323 109.292 16.124 109.359 16.3792C109.426 16.6344 109.582 16.8693 109.449 16.9592C109.305 16.9864 109.157 16.9804 109.015 16.9417C108.874 16.903 108.744 16.8326 108.634 16.7359C108.556 16.5793 109.037 16.3444 109.002 16.2893C108.936 16.2439 108.86 16.2158 108.78 16.2077C108.701 16.1996 108.621 16.2117 108.547 16.2429C108.402 16.3299 108.335 16.5126 108.179 16.5561C108.022 16.5996 107.599 16.1327 107.497 16.2661C107.396 16.3995 107.61 16.8258 107.72 16.9244C107.831 17.023 108.245 17.081 108.277 17.1912C108.309 17.3014 107.987 17.5479 107.622 17.5276C107.256 17.5073 106.929 17.2144 106.784 17.3362C106.639 17.458 106.717 17.7828 106.618 17.893C106.52 18.0032 105.972 17.9278 105.705 18.2178C105.438 18.5078 105.313 18.9428 105.047 19.1864C104.78 19.43 104.655 19.1197 104.298 19.4764C103.942 19.8331 103.878 20.619 103.866 20.88C103.855 21.141 103.866 21.3585 103.779 21.3266C103.654 21.2188 103.568 21.0732 103.533 20.9119C103.498 20.7669 103.611 20.5233 103.611 20.4334C103.409 20.1575 103.123 19.9542 102.796 19.8534C102.506 19.8099 102.216 20.0564 102.007 20.2333C101.799 20.4102 101.381 20.3783 101.236 20.5233C101.091 20.6683 100.981 21.9501 101.091 22.2633C101.201 22.5765 101.349 22.5533 101.706 22.4083C102.062 22.2633 101.862 21.9501 102.074 22.0168C102.169 22.0529 102.251 22.1173 102.309 22.2012C102.366 22.2852 102.397 22.3848 102.396 22.4866C102.396 22.6635 101.973 23.0869 102.028 23.2087C102.083 23.3305 102.451 23.1884 102.631 23.2435C102.811 23.2986 102.898 23.4117 102.843 23.867C102.787 24.3223 102.819 24.6819 103.086 24.8327C103.353 24.9835 103.504 24.6152 103.623 24.6645C103.742 24.7138 103.913 24.9806 104.072 24.9545C104.232 24.9284 104.156 24.7863 104.475 24.6848C104.794 24.5833 104.675 24.5195 104.742 24.3194C104.753 24.2681 104.775 24.2197 104.806 24.1775C104.837 24.1353 104.877 24.1002 104.923 24.0747C104.969 24.0491 105.02 24.0337 105.072 24.0294C105.124 24.0251 105.177 24.032 105.226 24.0497C105.444 24.1512 105.293 24.302 105.31 24.4673C105.328 24.6326 105.711 24.6529 106.012 24.7573C106.314 24.8617 106.482 24.7573 107.082 24.9603C107.683 25.1633 107.717 25.7607 107.97 25.8622C108.222 25.9637 109.054 25.7955 109.658 26.2305C110.261 26.6655 110.093 27.4659 110.391 27.7008C110.69 27.9357 111.812 28.2518 112.247 28.3359C112.682 28.42 112.749 28.1184 113.1 28.2025C113.272 28.2186 113.433 28.2944 113.556 28.4167C113.678 28.539 113.754 28.7002 113.77 28.8724C113.871 29.29 112.566 30.1803 112.415 30.5805Z" fill="#FFC727"/>
<path d="M103.431 22.04C103.431 22.1328 103.721 22.1734 104.058 22.3619C104.394 22.5504 104.513 23.1101 104.693 23.0985C104.873 23.0869 104.815 22.8317 104.881 22.7621C104.911 22.7428 104.935 22.7166 104.951 22.6857C104.968 22.6548 104.977 22.6203 104.977 22.5852C104.977 22.5501 104.968 22.5156 104.951 22.4847C104.935 22.4538 104.911 22.4276 104.881 22.4083C104.704 22.2633 104.53 21.9501 104.203 21.9066C103.875 21.8631 103.823 21.7268 103.678 21.7384C103.641 21.739 103.604 21.7478 103.571 21.7639C103.537 21.7801 103.508 21.8034 103.485 21.8321C103.461 21.8608 103.444 21.8942 103.435 21.9301C103.426 21.9661 103.425 22.0035 103.431 22.04Z" fill="#FFC727"/>
<path d="M105.27 22.968C105.218 23.1072 105.27 23.2029 105.627 23.2928C105.983 23.3827 106.317 23.2029 106.207 23.1304C106.096 23.0579 105.917 23.0927 105.995 22.968C106.073 22.8433 106.041 22.678 105.751 22.7012C105.461 22.7244 105.316 22.8462 105.27 22.968Z" fill="#FFC727"/>
<path d="M106.52 23.0086C106.398 23.026 106.331 23.2377 106.453 23.3711C106.575 23.5045 106.575 23.4813 106.72 23.3711C106.865 23.2609 107.088 23.2029 107.033 23.0811C106.978 22.9593 106.642 22.9912 106.52 23.0086Z" fill="#FFC727"/>
<path d="M107.488 23.4639C107.543 23.2957 107.825 23.4639 107.946 23.6379C107.993 23.7352 108.017 23.8417 108.017 23.9496C108.017 24.0575 107.993 24.1641 107.946 24.2614C107.88 24.4528 107.833 24.6761 107.68 24.5862C107.526 24.4963 107.68 24.2295 107.68 24.0729C107.68 23.9163 107.445 23.6002 107.488 23.4639Z" fill="#FFC727"/>
<path d="M112.294 14.1636C112.236 14.3057 112.505 14.355 112.662 14.4536C112.819 14.5522 112.952 14.5957 113.027 14.4536C113.044 14.4211 113.053 14.3854 113.054 14.3491C113.054 14.3127 113.047 14.2766 113.033 14.2433C113.018 14.2101 112.996 14.1805 112.969 14.1567C112.941 14.1329 112.909 14.1154 112.874 14.1056C112.749 14.065 112.349 14.0302 112.294 14.1636Z" fill="#FFC727"/>
<path d="M114.399 15.4686C114.503 15.5759 114.689 15.5585 114.799 15.7151C114.909 15.8717 114.878 16.1385 115.034 16.2168C115.191 16.2951 115.301 16.2168 115.324 16.1037C115.347 15.9906 115.101 15.7151 115.124 15.6571C115.147 15.5991 115.446 15.7354 115.516 15.9036C115.585 16.0718 115.446 16.3038 115.603 16.3502C115.759 16.3966 115.727 16.1936 115.794 16.1501C115.861 16.1066 116.006 16.1269 115.994 15.9935C115.939 15.7885 115.823 15.6052 115.661 15.4686C115.516 15.3421 115.344 15.2507 115.159 15.2018C115.058 15.173 114.952 15.1662 114.848 15.1817C114.744 15.1972 114.644 15.2347 114.556 15.2917C114.422 15.3903 114.335 15.4019 114.399 15.4686Z" fill="#FFC727"/>
<path d="M119.222 17.5682C119.214 17.6138 119.192 17.6556 119.158 17.6871C118.923 17.8524 118.645 17.2753 118.323 17.1622C118.001 17.0491 117.856 16.6402 117.786 16.7272C117.717 16.8142 117.743 16.9389 117.641 17.0839C117.54 17.2289 117.398 17.197 117.331 17.4754C117.264 17.7538 117.641 18.2671 117.554 18.4324C117.467 18.5977 117.354 18.5455 117.175 18.5339C116.995 18.5223 117.03 18.6789 116.795 18.6122C116.56 18.5455 116.763 18.2555 116.394 17.9104C116.026 17.5653 115.904 17.4986 115.983 17.3304C116.061 17.1622 115.948 16.9505 116.116 16.9273C116.284 16.9041 116.406 17.1506 116.528 17.2173C116.65 17.284 116.786 17.0839 116.795 16.907C116.803 16.7301 116.406 16.4836 116.261 16.3444C116.132 16.1194 116.096 15.8533 116.16 15.602C116.218 15.5005 116.383 15.5353 116.429 15.2888C116.455 15.1467 116.226 14.906 116.032 14.732C117.256 15.4797 118.336 16.4402 119.222 17.5682Z" fill="#FFC727"/>
<path d="M120.886 27.55C120.918 27.1933 120.741 27.1701 120.918 26.5118C120.972 26.2528 120.971 25.9854 120.916 25.7268C120.86 25.4681 120.752 25.2238 120.596 25.0096C120.463 24.8646 120.173 24.9081 119.938 25.0531C119.703 25.1981 119.871 25.3083 119.715 25.3663C119.558 25.4243 119.405 25.3315 119.26 25.3431C119.115 25.3547 118.97 25.723 118.68 25.7114C118.39 25.6998 118.166 25.2532 117.934 24.9371C117.702 24.621 117.221 24.418 117.064 24.0265C116.908 23.635 117.209 23.0347 117.143 22.5765C117.076 22.1183 116.774 22.2198 116.719 21.9617C116.664 21.7036 116.763 21.8283 116.841 21.5847C116.919 21.3411 116.751 21.2048 116.908 20.7814C117.064 20.358 117.343 20.1463 117.276 19.9578C117.15 19.7287 117.053 19.4853 116.986 19.2328C116.986 19.0124 117.198 19.0211 117.621 18.7079C118.044 18.3947 118.155 18.4179 118.491 18.531C118.723 18.616 118.962 18.6829 119.204 18.7311C119.393 18.763 119.651 19.256 119.726 19.2328C119.802 19.2096 119.816 19.0646 119.851 18.8529C119.872 18.7603 119.92 18.6763 119.99 18.6122C121.248 20.6304 121.875 22.9779 121.791 25.3544C121.706 27.7308 120.915 30.0281 119.518 31.9522C120.64 30.2296 120.852 27.9183 120.886 27.55Z" fill="#FFC727"/>
<path d="M123.569 24.94C123.606 26.1679 123.476 27.3951 123.183 28.5882L123.079 29.0377L122.934 29.4785L122.644 30.3485L122.261 31.1953C122.197 31.3345 122.139 31.4853 122.067 31.6158L121.838 32.0218C121.226 33.1065 120.473 34.1043 119.596 34.9885L118.9 35.6439C118.677 35.8614 118.413 36.0325 118.169 36.2239C117.674 36.6052 117.155 36.954 116.615 37.2679C116.342 37.4245 116.058 37.5579 115.78 37.6942L115.356 37.9059C115.214 37.9697 115.066 38.019 114.921 38.077L114.051 38.4076L113.143 38.6512L112.688 38.773L112.23 38.86L111.302 39.0079L110.359 39.0659L109.89 39.092C109.733 39.092 109.576 39.092 109.42 39.0775L108.477 39.034C108.164 39.0021 107.854 38.947 107.544 38.9035C106.922 38.8041 106.307 38.6666 105.702 38.4917C105.412 38.396 105.108 38.28 104.812 38.1756L104.368 38.0132C104.223 37.9523 104.078 37.8798 103.942 37.8131L103.078 37.41L102.268 36.9228C101.997 36.7631 101.737 36.5838 101.491 36.3863C101.242 36.1949 100.981 36.018 100.743 35.8063C100.265 35.3965 99.8138 34.9568 99.3917 34.4897C98.5387 33.5627 97.8194 32.5212 97.2544 31.3954L96.86 30.5312C96.7382 30.2412 96.6454 29.9512 96.5352 29.6612L96.3786 29.2175C96.3293 29.0667 96.3003 28.9275 96.2597 28.7622L96.0219 27.84C95.7898 26.6074 95.7148 25.3504 95.7986 24.099C95.981 21.5953 96.8433 19.1888 98.2926 17.139C99.727 15.1186 101.685 13.5275 103.956 12.5367C101.794 13.6604 99.9632 15.3287 98.6435 17.3768C97.3403 19.3988 96.5922 21.7282 96.4743 24.1309C96.4342 25.3203 96.5315 26.5105 96.7643 27.6776L96.9963 28.5476C97.034 28.6897 97.0659 28.8376 97.1152 28.9739L97.2718 29.3915C97.3791 29.6815 97.4719 29.9483 97.5908 30.2209L97.9852 31.0184C98.1147 31.2845 98.261 31.5422 98.4231 31.7898C98.5826 32.0363 98.7131 32.3031 98.8987 32.538C99.2393 33.0219 99.6123 33.4821 100.015 33.9155C100.414 34.3525 100.841 34.7641 101.291 35.148C101.517 35.3394 101.764 35.5047 101.999 35.6845L102.353 35.9484C102.474 36.0354 102.605 36.105 102.73 36.1833C106.708 38.7933 112.091 38.9354 116.293 36.6879C117.341 36.114 118.315 35.4137 119.193 34.6028C120.07 33.7834 120.834 32.85 121.464 31.8275L121.707 31.4476C121.785 31.32 121.849 31.1837 121.919 31.0503L122.334 30.2441L122.667 29.4031L122.835 28.9797L122.957 28.5447C123.041 28.2547 123.128 27.9647 123.204 27.6747L123.366 26.7786C123.395 26.6278 123.427 26.4886 123.45 26.3291L123.488 25.8738L123.569 24.94Z" fill="#263238"/>
<path d="M105.119 14.1433L103.501 14.9118L102.361 11.5043L103.193 11.1099L105.119 14.1433Z" fill="#263238"/>
<path d="M110.963 38.6802H109.229V42.9287H110.963V38.6802Z" fill="#263238"/>
<path d="M116.449 41.3482H103.739V42.9229H116.449V41.3482Z" fill="#263238"/>
<path d="M126.718 130.503H62.9763V132.072H126.718V130.503Z" fill="#FFC727"/>
<path d="M90.6018 130.503V128.168L66.9697 128.627L63.8638 130.503H90.6018Z" fill="#EBEBEB"/>
<path d="M90.6018 130.5V128.18C90.6018 128.18 98.2839 128.313 99.644 128.18C101.004 128.047 107.947 127.4 109.072 127.461C110.197 127.522 112.389 128.847 112.389 128.847V130.5H90.6018Z" fill="#DBDBDB"/>
<path d="M126.095 130.5L125.538 129.175C125.538 129.175 122.16 129.244 121.672 129.175C121.185 129.105 116.603 127.78 115.611 127.96C114.62 128.139 112.389 128.83 112.389 128.83V130.5H126.095Z" fill="#DBDBDB"/>
<path d="M62.1874 92.2287H17.4143V115.736H62.1874V92.2287Z" fill="#FFC727"/>
<path opacity="0.5" d="M62.1874 92.2287H17.4143V115.736H62.1874V92.2287Z" fill="black"/>
<path d="M14.5607 115.736H17.4143L17.4143 92.2287H14.5607L14.5607 115.736Z" fill="#FFC727"/>
<path opacity="0.7" d="M14.5607 115.736H17.4143L17.4143 92.2287H14.5607L14.5607 115.736Z" fill="black"/>
<path d="M26.0013 115.736H21.573V129.876H26.0013V115.736Z" fill="#C7C7C7"/>
<path d="M58.026 115.736H53.5977V129.876H58.026V115.736Z" fill="#C7C7C7"/>
<path d="M24.9922 108.17C24.9933 108.408 24.9239 108.641 24.7928 108.839C24.6616 109.038 24.4746 109.193 24.2553 109.285C24.036 109.377 23.7943 109.403 23.5607 109.357C23.3271 109.312 23.1121 109.199 22.9428 109.032C22.7736 108.865 22.6577 108.651 22.6098 108.418C22.562 108.185 22.5842 107.943 22.6738 107.723C22.7634 107.502 22.9163 107.313 23.1132 107.18C23.31 107.046 23.5421 106.974 23.78 106.972C23.9384 106.971 24.0955 107.001 24.2423 107.06C24.3891 107.12 24.5227 107.207 24.6354 107.319C24.7481 107.43 24.8376 107.563 24.8989 107.709C24.9601 107.855 24.9918 108.012 24.9922 108.17Z" fill="white"/>
<path d="M57.014 108.17C57.014 108.407 56.9436 108.64 56.8117 108.837C56.6797 109.034 56.4922 109.188 56.2728 109.279C56.0535 109.37 55.8121 109.394 55.5792 109.348C55.3463 109.301 55.1323 109.187 54.9644 109.019C54.7965 108.851 54.6822 108.637 54.6359 108.404C54.5895 108.171 54.6133 107.93 54.7042 107.711C54.7951 107.491 54.9489 107.304 55.1464 107.172C55.3438 107.04 55.5759 106.969 55.8134 106.969C56.1318 106.969 56.4372 107.096 56.6623 107.321C56.8875 107.546 57.014 107.852 57.014 108.17Z" fill="white"/>
<path d="M57.9999 88.6936C63.8782 89.2939 87.0521 85.4398 92.8376 78.3609C95.9 74.6199 95.175 46.5276 94.9111 43.993C94.7371 42.3342 76.0292 43.2419 76.2438 45.7852C76.8238 52.635 78.8741 68.6952 77.3806 70.035C72.8305 74.095 66.3171 76.5281 58.055 81.1594C52.2985 84.39 51.5126 88.0324 57.9999 88.6936Z" fill="#AD6359"/>
<path d="M93.3798 33.35C94.9168 36.8648 95.2474 45.2835 94.5398 47.3454C93.8322 49.4073 79.5439 50.4455 78.0533 48.7954C76.5627 47.1453 72.3055 34.8957 73.3234 31.1054C74.3413 27.3151 91.7877 29.7163 93.3798 33.35Z" fill="#AD6359"/>
<path d="M72.932 37.2389C74.962 37.4535 75.0229 35.7889 75.0229 35.7889C75.0229 35.7889 75.3129 39.7213 77.4937 40.2694C79.5933 40.7885 80.0051 37.5956 80.037 37.3694C80.0544 37.5753 80.414 41.1829 82.6615 41.5077C84.9815 41.8412 84.8568 38.5642 84.8481 38.3525C84.9235 38.5439 86.0081 41.0553 87.7481 40.9132C90.7757 40.6667 88.2121 34.1736 89.2851 31.958C89.2851 31.958 93.2465 33.35 93.3683 33.3645C93.3683 33.3645 91.0483 27.1353 87.9888 25.8535C87.5453 25.6607 87.0493 25.6249 86.5827 25.7519C86.1161 25.879 85.7068 26.1613 85.4223 26.5524C85.4223 26.5524 84.8974 24.4615 83.1371 24.1512C82.2323 23.9946 81.1767 25.3112 81.1767 25.3112C81.1767 25.3112 80.6866 23.6553 79.1032 23.4784C77.8417 23.3305 76.9775 24.6645 76.9775 24.6645C76.9775 24.6645 76.2293 15.8862 73.9035 15.8137C69.8986 15.6919 72.555 34.3737 71.2674 35.5946C70.641 36.1775 72.0504 37.1461 72.932 37.2389Z" fill="#AD6359"/>
<path d="M76.8208 24.8356C76.8225 24.829 76.8217 24.822 76.8187 24.8159C76.8157 24.8097 76.8107 24.8049 76.8044 24.8021C76.7982 24.7993 76.7912 24.7988 76.7847 24.8007C76.7781 24.8026 76.7724 24.8067 76.7686 24.8124C75.1388 28.1242 74.3587 32.2625 74.9851 35.9223C75.0054 36.0412 75.394 36.4559 75.3795 36.3196C75.017 32.9208 75.6695 28.5766 76.8208 24.8356Z" fill="#263238"/>
<path d="M81.1797 25.23C81.1797 25.1894 81.1246 25.1662 81.1043 25.2068C79.4426 28.6288 78.6944 33.3268 79.9124 37.4477C79.953 37.5898 80.1328 37.6739 80.098 37.5086C79.4977 34.7072 80.1241 28.5998 81.1797 25.23Z" fill="#263238"/>
<path d="M85.0309 38.6077C84.0188 34.597 84.3929 30.6675 85.3557 26.6858C85.3557 26.6336 85.2948 26.6191 85.2716 26.6597C84.2682 28.4809 83.9202 31.0822 83.8216 33.1296C83.6908 35.0285 84.0608 36.9285 84.8946 38.6396C84.9236 38.7121 85.0541 38.6918 85.0309 38.6077Z" fill="#263238"/>
<path d="M74.9736 35.8324C74.9997 35.9774 75.3013 35.641 75.3303 35.7831C75.6609 37.3375 76.3859 40.0896 77.7112 40.1099C78.7755 40.1099 79.5266 38.7034 79.602 38.0451L79.7934 36.3892L80.1907 38.0103C80.3618 38.7282 80.6478 39.4137 81.0375 40.0403C81.429 40.6493 81.98 41.1539 82.6267 41.2467C82.9387 41.3162 83.2652 41.276 83.551 41.1328C83.8368 40.9897 84.0645 40.7523 84.1956 40.4608C84.4806 39.8051 84.5915 39.0869 84.5175 38.3757L84.3899 36.4037L85.1526 38.2162C85.3639 38.7205 85.6398 39.1952 85.9733 39.6285C86.2721 40.0532 86.6898 40.3801 87.1739 40.5681C87.3943 40.6444 87.6315 40.6577 87.859 40.6064C88.0865 40.5552 88.2952 40.4415 88.4615 40.2781C88.7778 39.8569 88.966 39.3535 89.0038 38.8281C89.1546 37.7174 89.0676 36.5574 89.0386 35.4061C89.0183 34.8261 88.998 34.2461 89.0067 33.6661C88.9815 33.0826 89.0804 32.5005 89.2967 31.958C89.1447 32.5129 89.1004 33.0917 89.1662 33.6632C89.2039 34.2432 89.2677 34.8232 89.3286 35.3858C89.4888 36.5443 89.5383 37.7154 89.4765 38.8832C89.4586 39.518 89.2516 40.1329 88.882 40.6493C88.653 40.9096 88.3525 41.0971 88.018 41.1883C87.6834 41.2795 87.3295 41.2706 86.9999 41.1626C86.3918 40.9488 85.8616 40.5579 85.4774 40.0403C85.0999 39.5613 84.7851 39.036 84.5407 38.4772L85.1758 38.3177C85.2735 39.1583 85.1506 40.0099 84.8191 40.7885C84.6215 41.2146 84.2823 41.5589 83.8592 41.7629C83.4386 41.9487 82.9716 42.0033 82.5194 41.9195C81.6001 41.7658 80.9302 41.0814 80.5068 40.3941C80.0856 39.6963 79.7819 38.9341 79.6078 38.1379L80.1878 38.1031C80.0631 38.9354 79.3932 40.6145 77.7431 40.803C75.5652 40.7189 75.02 36.5951 74.9736 35.8324Z" fill="#263238"/>
<path d="M78.0591 48.7896C78.0591 48.7896 69.4113 42.6445 68.6167 39.15C67.8221 35.6555 73.4539 30.0237 75.8348 28.2982C79.1205 25.9173 80.4951 28.5128 79.7962 30.5921C78.9871 33.002 76.6294 36.0586 76.4699 36.2761C76.4699 36.2761 82.615 37.2389 84.3695 41.4149C86.124 45.5909 78.0591 48.7896 78.0591 48.7896Z" fill="#AD6359"/>
<path d="M71.6704 32.2712C72.6609 31.0014 73.7645 29.824 74.9677 28.7535C75.5672 28.186 76.2522 27.7162 76.9977 27.3615C78.3085 26.7612 79.8977 27.2223 80.1877 28.7622C80.6285 31.0822 78.1983 34.7797 76.6642 36.4472L76.4931 36.0122C79.5468 36.3689 82.47 38.0741 84.0331 40.7392C82.6785 38.9314 80.7765 37.6091 78.6101 36.9692C77.7396 36.7017 76.8398 36.5411 75.9305 36.4907L76.2814 36.0992C77.6241 34.5593 79.9847 30.9546 79.6367 28.8811C79.4482 27.6544 78.1867 27.3673 77.1601 27.7965C76.4477 28.1143 75.7838 28.5312 75.1881 29.0348C73.9447 30.0381 72.7686 31.1222 71.6675 32.2799L71.6704 32.2712Z" fill="#263238"/>
<path d="M77.3864 87.3828L70.5424 73.8253C70.5424 73.8253 61.1609 78.59 54.0327 83.5722C46.9045 88.5544 50.7818 90.8425 58.2899 90.4075C65.798 89.9725 77.3864 87.3828 77.3864 87.3828Z" fill="#FFC727"/>
<path d="M68.5995 75.7625C70.3166 79.6396 72.2332 83.4253 74.3415 87.1044C74.3734 87.1595 74.4633 87.1044 74.4372 87.0522C72.7251 83.1728 70.8124 79.3851 68.7068 75.7045C68.6749 75.6436 68.5734 75.69 68.5995 75.7625Z" fill="#263238"/>
<path opacity="0.1" d="M64.7336 89.7115C62.4977 90.0334 60.2618 90.2915 58.3014 90.4075C50.7846 90.8425 46.9073 88.5602 54.0326 83.5722C54.7286 83.085 55.4449 82.6007 56.1728 82.1222L64.7336 89.7115Z" fill="black"/>
<path d="M24.3339 129.877H70.934C71.5633 129.407 65.7575 95.4274 58.3741 83.6969C56.9908 81.5016 50.3701 78.1492 45.1907 82.1222C29.551 94.1137 23.7481 129.125 24.3339 129.877Z" fill="#FFC727"/>
<path opacity="0.1" d="M57.4343 82.6703H44.5003C44.7294 82.4847 44.9585 82.2991 45.1905 82.1222H56.7006C56.9552 82.2911 57.2001 82.474 57.4343 82.6703ZM60.1864 87.0638H40.1996C40.0517 87.2436 39.9096 87.4263 39.7617 87.609H60.4387L60.1864 87.0638ZM62.2164 91.9938H36.7254C36.6123 92.1736 36.5021 92.3563 36.3919 92.5419H62.431C62.3643 92.365 62.2947 92.1823 62.228 92.0025L62.2164 91.9938ZM63.8955 96.9238H33.9936C33.9008 97.1065 33.8138 97.2863 33.7239 97.469H64.0898C64.0202 97.3066 63.9651 97.1239 63.9071 96.9441L63.8955 96.9238ZM65.3455 101.854H31.7403C31.662 102.036 31.5866 102.219 31.5112 102.402H65.5137C65.4644 102.248 65.4122 102.08 65.3629 101.883L65.3455 101.854ZM66.6418 106.784H29.8118C29.7451 106.966 29.6813 107.146 29.6175 107.329H66.7955C66.752 107.187 66.6998 107.01 66.6592 106.824L66.6418 106.784ZM67.8018 111.714H28.1907C28.1327 111.896 28.0776 112.079 28.0225 112.262H67.9555C67.9149 112.131 67.8743 111.94 67.8308 111.763L67.8018 111.714ZM68.8632 116.644H26.7842C26.7349 116.826 26.6885 117.009 26.6421 117.189H69.0198C68.9676 117.07 68.9328 116.887 68.8922 116.705L68.8632 116.644ZM69.8173 121.574H25.5952C25.5517 121.759 25.514 121.942 25.4763 122.122H69.9449C69.913 122.012 69.8898 121.829 69.8463 121.643L69.8173 121.574ZM70.6351 126.504H24.6498C24.6208 126.692 24.5918 126.875 24.5657 127.049H70.7395C70.7163 126.956 70.6902 126.773 70.6641 126.585L70.6351 126.504Z" fill="black"/>
<path d="M42.9548 84.2102C31.9841 98.5014 18.6151 124.636 21.5586 129.43C25.2909 135.505 48.0443 132.788 53.2904 131.184C55.5262 130.5 50.8486 110.983 48.4416 111.664C46.3449 112.259 42.0065 113.051 41.9137 112.761C41.8209 112.471 45.5445 102.791 48.4938 89.0068C50.5035 79.6137 45.2806 81.1797 42.9548 84.2102Z" fill="#AD6359"/>
<path d="M32.0274 119.654C33.3353 117.702 37.4388 114.031 41.8294 112.842C41.928 112.816 42.0034 112.877 41.9164 112.92C38.367 114.768 35.0559 117.04 32.0564 119.689C32.0419 119.706 32.0129 119.677 32.0274 119.654Z" fill="#263238"/>
<path d="M45.2922 112.7C45.2922 112.7 52.2145 108.474 56.5384 107.381C62.3384 105.931 67.9296 107.036 70.2467 107.648C75.0868 108.921 85.9067 115.35 84.6017 118.793C83.4185 121.907 72.6885 114.776 72.6885 114.776C72.6885 114.776 84.8279 120.24 82.7138 123.728C80.5997 127.217 68.614 118.218 68.614 118.218C68.614 118.218 80.9593 124.111 78.2101 127.362C76.1337 129.821 64.8179 122.293 64.8179 122.293C64.8179 122.293 75.4 127.446 73.37 130.065C71.1312 132.965 60.2504 126.663 60.2504 126.663C53.9748 132.463 48.6185 132.643 44.7905 132.324C43.8625 132.24 45.2922 112.7 45.2922 112.7Z" fill="#AD6359"/>
<path d="M68.6109 112.616C70.0609 113.196 71.5312 113.793 72.9232 114.512C74.3152 115.231 75.6811 115.994 77.0006 116.832C80.2341 118.9 81.9306 120.704 81.8204 120.602C79.048 118.242 74.1035 115.597 72.7115 114.881C71.3195 114.164 69.971 113.378 68.5819 112.662C68.5471 112.65 68.5761 112.601 68.6109 112.616Z" fill="#263238"/>
<path d="M65.9284 117.595C67.7467 118.427 69.5824 119.19 71.363 120.104C73.1436 121.017 74.7386 122.032 76.4467 123.062C76.5772 123.143 76.4902 123.186 76.3568 123.111C74.6168 122.151 72.9232 121.397 71.1658 120.457C69.4084 119.518 67.6858 118.509 65.9052 117.636C65.8791 117.624 65.9023 117.583 65.9284 117.595Z" fill="#263238"/>
<path d="M62.8603 121.455C65.7023 122.586 68.3355 124.242 70.8759 125.927C71.0035 126.011 70.8759 126.057 70.7512 125.979C68.1151 124.442 66.0561 123.215 62.8197 121.553C62.7704 121.527 62.7994 121.432 62.8603 121.455Z" fill="#263238"/>
<path d="M30.0498 101.79L44.5788 106.218C44.5788 106.218 47.6267 96.1466 48.9491 87.551C50.2715 78.9554 45.9418 80.1763 41.0611 85.9067C36.1804 91.6371 30.0498 101.79 30.0498 101.79Z" fill="#FFC727"/>
<path d="M48.2181 94.9576C48.2194 94.9504 48.2182 94.943 48.2146 94.9366C48.211 94.9301 48.2054 94.9252 48.1986 94.9224C48.1917 94.9197 48.1842 94.9194 48.1772 94.9216C48.1702 94.9238 48.1642 94.9283 48.1601 94.9344C47.9455 95.41 47.7328 95.8876 47.5221 96.367C47.7135 95.4129 47.8875 94.453 48.0383 93.4873C48.0383 93.4554 47.9919 93.4409 47.9832 93.4728C47.4032 95.5666 46.8232 97.6604 46.2925 99.7658C45.7618 101.871 45.1035 103.951 44.5786 106.062C44.1668 106.007 43.9435 105.954 43.6361 105.925C43.5636 105.925 43.523 105.998 43.5926 106.027C43.987 106.195 44.7526 106.442 44.7845 106.389C45.5472 104.359 46.1243 102.089 46.684 99.992C46.9605 98.9577 47.206 97.9195 47.4206 96.8774C47.7223 96.253 47.9885 95.612 48.2181 94.9576Z" fill="#263238"/>
<path d="M44.5206 103.478C40.5325 102.039 36.4729 100.805 32.358 99.7832C32.2971 99.7687 32.271 99.8702 32.329 99.8905C36.3154 101.335 40.3741 102.571 44.4887 103.594C44.5554 103.611 44.5844 103.501 44.5206 103.478Z" fill="#263238"/>
<path d="M49.155 83.1749C49.387 83.9608 53.4818 88.9198 57.1155 88.5428C58.2958 88.4181 57.9043 81.9308 57.9043 81.9308L57.9855 81.4465L59.1049 74.6518L49.7611 69.4318C49.7611 69.4318 49.0622 82.8414 49.155 83.1749Z" fill="#AD6359"/>
<path d="M59.1049 74.6547L57.9826 81.4436L57.9043 81.9337C57.9043 81.9337 57.9739 83.1082 57.9652 84.4654C52.9598 84.0072 50.4774 80.4054 49.3406 77.8911C49.5204 74.0196 49.7611 69.4347 49.7611 69.4347L59.1049 74.6547Z" fill="#263238"/>
<path d="M67.8947 61.8396C71.4153 76.1685 63.2315 79.895 60.1401 80.6519C57.3358 81.3392 47.6962 83.3199 42.7111 69.4318C37.726 55.5437 43.2766 49.3754 49.6102 47.4643C55.9438 45.5532 64.3799 47.5107 67.8947 61.8396Z" fill="#AD6359"/>
<path d="M62.608 63.9537C64.2117 63.6347 64.7337 66.8682 63.246 67.164C61.7583 67.4598 61.2624 64.2205 62.608 63.9537Z" fill="#263238"/>
<path d="M54.369 65.5748C52.7508 65.8329 53.3859 69.0548 54.8852 68.8083C56.3845 68.5618 55.7233 65.3602 54.369 65.5748Z" fill="#263238"/>
<path d="M63.3156 61.7381C62.9676 61.7555 62.6428 61.7149 62.2977 61.7004C61.9091 61.6801 61.5959 61.7004 61.2682 61.4626C61.1825 61.3843 61.1252 61.2797 61.1052 61.1653C61.0853 61.0509 61.1038 60.9331 61.158 60.8304C61.4161 60.407 61.9004 60.3113 62.3702 60.3142C62.8455 60.3009 63.3088 60.4653 63.6694 60.7753C63.748 60.8506 63.8029 60.9472 63.8274 61.0533C63.852 61.1594 63.845 61.2703 63.8075 61.3724C63.7699 61.4746 63.7034 61.5636 63.616 61.6286C63.5287 61.6935 63.4242 61.7316 63.3156 61.7381Z" fill="#263238"/>
<path d="M52.6871 64.0088C53.0089 63.9007 53.3246 63.7749 53.6325 63.6318C53.995 63.4839 54.2966 63.4027 54.5257 63.0518C54.5793 62.949 54.5976 62.8313 54.5777 62.717C54.5578 62.6027 54.5007 62.4982 54.4155 62.4196C54.0298 62.1064 53.5455 62.1789 53.0989 62.3384C52.6473 62.4855 52.2667 62.7957 52.0317 63.2084C51.9793 63.306 51.957 63.4169 51.9677 63.5272C51.9784 63.6374 52.0216 63.742 52.0917 63.8277C52.1619 63.9134 52.2559 63.9764 52.3619 64.0086C52.4679 64.0408 52.581 64.0409 52.6871 64.0088Z" fill="#263238"/>
<path d="M57.3734 74.1965C57.6373 74.4053 57.9128 74.7011 58.2782 74.6924C58.6483 74.643 59.0039 74.5165 59.3222 74.3212C59.3541 74.3212 59.3889 74.3357 59.3715 74.3676C59.2513 74.5801 59.0755 74.7559 58.863 74.876C58.6504 74.9961 58.4091 75.0559 58.1651 75.0491C57.704 75.0201 57.4372 74.6547 57.2951 74.2545C57.2603 74.1965 57.3357 74.1675 57.3734 74.1965Z" fill="#263238"/>
<path d="M60.8998 69.919C60.8998 69.919 61.3522 71.369 61.4798 72.0621C61.4798 72.1259 61.3261 72.1868 61.0912 72.239C61.0912 72.239 61.0912 72.239 61.0651 72.239C60.4845 72.4497 59.8571 72.4962 59.2519 72.3734C58.6466 72.2506 58.0869 71.9633 57.6344 71.543C57.5735 71.485 57.6489 71.398 57.7214 71.4299C58.7538 71.949 59.8007 71.9519 60.8969 71.7866C60.9143 71.5836 60.0269 69.31 60.1458 69.31C60.6243 69.31 61.4769 69.3796 61.793 69.4028C61.503 68.4574 60.6069 65.8097 60.111 64.0871C60.082 63.9798 60.2444 63.916 60.2879 64.0117C61.1905 65.9137 61.9655 67.8736 62.6079 69.8784C62.6601 70.0408 61.2101 69.9886 60.8998 69.919Z" fill="#263238"/>
<path d="M42.1253 70.3105C46.339 70.1974 48.0384 64.9948 46.6667 61.074C46.6667 61.074 57.939 61.4655 57.6026 52.4784C58.5032 53.6143 59.6702 54.5104 61.0002 55.0871C62.3302 55.6638 63.7819 55.9033 65.2267 55.7844L67.0218 58.8207C68.1325 58.3799 68.7995 55.1522 65.7603 52.8815C65.7603 52.8815 65.1339 48.4445 61.5901 46.0926C58.0463 43.7407 54.9549 45.8026 54.9549 45.8026C54.9549 45.8026 52.1332 43.877 48.0848 44.8021C44.0364 45.7272 42.7111 49.6306 42.7111 49.6306C42.7111 49.6306 37.2997 51.2198 36.7429 55.2276C36.1861 59.2354 38.4655 61.6656 38.4655 61.6656C38.4655 61.6656 37.233 63.3389 38.2625 66.5956C38.9237 68.73 40.8609 70.3453 42.1253 70.3105Z" fill="#263238"/>
<path d="M57.2778 51.7099C57.4333 52.4265 57.513 53.1574 57.5156 53.8907C57.5375 54.6124 57.4713 55.334 57.3184 56.0396C57.0264 57.4362 56.2174 58.6709 55.0535 59.4964C53.9254 60.3838 52.4435 60.6564 51.0515 60.9261C50.3265 60.9754 49.6015 61.0769 48.8707 61.0827C48.1399 61.0885 47.4062 61.0624 46.6667 61.0827C47.3946 61.1871 48.1312 61.2567 48.8678 61.3466C49.6044 61.3901 50.3497 61.3466 51.095 61.3466C52.5595 61.1436 54.0994 60.8681 55.3522 59.943C56.6097 59.0268 57.4565 57.6529 57.7099 56.1179C57.9382 54.6356 57.7896 53.1197 57.2778 51.7099Z" fill="#263238"/>
<path d="M42.7111 49.6422C41.2978 49.7917 39.9306 50.231 38.6946 50.9327C37.4051 51.6288 36.4034 52.7589 35.8671 54.1227C35.646 54.8153 35.5374 55.5388 35.5452 56.2658C35.5257 56.99 35.6317 57.7121 35.8584 58.4002C36.2911 59.7774 37.2217 60.9438 38.4684 61.6714C37.3804 60.816 36.6014 59.6287 36.2499 58.29C35.9036 56.9756 35.9429 55.5894 36.363 54.2967C36.586 53.6659 36.9254 53.0826 37.3635 52.577C37.8229 52.077 38.3432 51.6367 38.9121 51.2662C40.0851 50.5282 41.3672 49.9801 42.7111 49.6422Z" fill="#263238"/>
<path d="M54.9548 45.82C55.9665 45.3342 57.0493 45.0131 58.1622 44.8688C59.2482 44.7226 60.3535 44.8574 61.3725 45.2603C62.3733 45.7045 63.246 46.3937 63.91 47.2642C64.592 48.1556 65.1392 49.1425 65.534 50.1932C65.3222 49.0598 64.8778 47.9825 64.229 47.0293C63.5959 46.0243 62.6675 45.2395 61.5711 44.7827C60.4746 44.3258 59.2637 44.2192 58.1042 44.4773C56.9697 44.6919 55.8952 45.15 54.9548 45.82Z" fill="#263238"/>
<path d="M63.51 56.3151C62.2517 56.0191 61.0512 55.5164 59.9575 54.8274C59.4262 54.4824 58.9434 54.0679 58.522 53.5949C58.0965 53.1044 57.7278 52.5674 57.4229 51.9941C57.5517 52.6584 57.8195 53.2879 58.2088 53.8414C58.595 54.4033 59.0876 54.8841 59.6588 55.2566C60.2277 55.6292 60.8522 55.9092 61.509 56.086C62.1584 56.2741 62.8348 56.3516 63.51 56.3151Z" fill="#263238"/>
<path d="M45.759 70.0843C45.759 70.0843 41.8672 66.0243 39.9793 67.4743C38.0914 68.9243 41.5105 75.1651 44.0799 75.69C44.4043 75.7797 44.7435 75.8028 45.0771 75.758C45.4106 75.7133 45.7317 75.6015 46.021 75.4295C46.3103 75.2575 46.5619 75.0288 46.7605 74.7571C46.9592 74.4854 47.1009 74.1763 47.1771 73.8485L45.759 70.0843Z" fill="#AD6359"/>
<path d="M41.0029 69.2433C40.9957 69.2455 40.9894 69.2499 40.9849 69.2559C40.9804 69.2619 40.978 69.2692 40.978 69.2767C40.978 69.2842 40.9804 69.2915 40.9849 69.2975C40.9894 69.3035 40.9957 69.3079 41.0029 69.31C42.8125 69.7334 43.9522 71.1718 44.8338 72.7088C44.2306 72.1578 43.4882 71.92 42.7371 72.6537C42.6994 72.6914 42.7371 72.7552 42.798 72.7378C43.0806 72.5987 43.3992 72.5499 43.7105 72.5982C44.0218 72.6464 44.3107 72.7893 44.538 73.0075C44.917 73.3784 45.2553 73.7886 45.5472 74.2313C45.6516 74.3705 45.9126 74.2313 45.8372 74.0805C45.8372 74.0805 45.8227 74.0573 45.8169 74.0428C45.5298 71.8707 43.3635 69.0983 41.0029 69.2433Z" fill="#263238"/>
</svg>
