<svg width="150" height="139" viewBox="0 0 150 139" fill="none" xmlns="http://www.w3.org/2000/svg">
<path d="M130.518 -16.4178C133.878 -15.3454 136.321 -13.6195 137.952 -11.3069C139.572 -9.01011 140.301 -6.26454 140.476 -3.30297C140.82 2.54418 139.017 9.6674 137.043 16.8778C135.039 24.2007 132.831 31.7045 132.112 38.6559C131.393 45.5962 132.198 51.6769 135.921 56.3085C144.427 66.8886 148.626 74.0988 148.394 81.6837C148.277 85.4696 147.063 89.2181 144.958 93.3861C142.858 97.5428 139.824 102.208 135.991 107.824C132.412 113.067 128.787 116.32 124.925 118.294C121.069 120.263 117.1 120.892 112.964 121.088C104.602 121.483 95.7401 120.188 84.1525 123.611C75.8279 126.071 68.4967 129.632 60.6514 132.565C52.9119 135.457 44.9311 137.612 35.9099 136.899C23.8833 135.949 10.6251 135.325 -1.35083 132.439C-13.3617 129.544 -24.3186 124.326 -31.6493 114.02C-47.1518 92.2263 -42.4641 62.5584 -34.4772 37.8304C-30.4146 25.2525 -25.1666 11.6756 -17.6795 0.384331C-10.1866 -10.9154 -0.368428 -20.0469 12.862 -23.4996C25.2806 -26.7404 48.7309 -26.8602 71.896 -25.258C95.0946 -23.6535 118.373 -20.2945 130.518 -16.4178Z" fill="#FAC046" stroke="white" stroke-width="3"/>
</svg>
