<svg width="20" height="20" viewBox="0 0 20 20" fill="none" xmlns="http://www.w3.org/2000/svg">
<path d="M16.2479 6.00136L10.4185 2.61299C10.2913 2.53901 10.1469 2.50006 9.9999 2.50006C9.85292 2.50006 9.70853 2.53901 9.58124 2.61299L3.75191 6.00136C3.62454 6.07538 3.51879 6.18187 3.4453 6.31011C3.3718 6.43834 3.33316 6.5838 3.33325 6.73185V13.5069C3.33316 13.655 3.3718 13.8004 3.4453 13.9287C3.51879 14.0569 3.62454 14.1634 3.75191 14.2374L9.58124 17.6258C9.70853 17.6998 9.85292 17.7387 9.9999 17.7387C10.1469 17.7387 10.2913 17.6998 10.4185 17.6258L16.2479 14.2374C16.3753 14.1634 16.481 14.0569 16.5545 13.9287C16.628 13.8004 16.6666 13.655 16.6665 13.5069V6.73129C16.6665 6.58334 16.6278 6.43799 16.5544 6.30986C16.4809 6.18173 16.3752 6.07533 16.2479 6.00136Z" fill="#2563EB"/>
<path d="M10.4187 17.6252L16.248 14.2368C16.3754 14.1628 16.4811 14.0563 16.5546 13.9281C16.6281 13.7998 16.6667 13.6544 16.6666 13.5063V6.73125C16.6667 6.5832 16.6281 6.43774 16.5546 6.3095C16.4811 6.18127 16.3754 6.07478 16.248 6.00076L10.4187 2.61238C10.2913 2.5386 10.1469 2.49984 10 2.5V17.7381C10.147 17.7381 10.2914 17.6992 10.4187 17.6252Z" fill="#2563EB"/>
<path d="M12.791 9.65156L10.6983 6.49133C10.6217 6.37564 10.5178 6.28082 10.396 6.21533C10.2742 6.14983 10.1381 6.1157 9.99999 6.11597C9.86215 6.11598 9.72645 6.15024 9.60492 6.21572C9.48339 6.28121 9.37981 6.37587 9.30335 6.49133L7.20897 9.65156C7.11728 9.79001 7.06836 9.95269 7.06836 10.1191C7.06836 10.2855 7.11728 10.4481 7.20897 10.5866L9.30168 13.7468C9.37829 13.8625 9.48214 13.9573 9.60398 14.0228C9.72583 14.0883 9.86187 14.1225 9.99999 14.1222C10.1378 14.1222 10.2735 14.0879 10.3951 14.0224C10.5166 13.957 10.6202 13.8623 10.6966 13.7468L12.791 10.5866C12.8827 10.4481 12.9316 10.2855 12.9316 10.1191C12.9316 9.95269 12.8827 9.79001 12.791 9.65156Z" fill="#F8EDE2"/>
<path d="M10 14.1222C10.1378 14.1222 10.2735 14.0879 10.3951 14.0224C10.5166 13.957 10.6202 13.8623 10.6966 13.7468L12.791 10.5866C12.8827 10.4481 12.9316 10.2855 12.9316 10.1191C12.9316 9.95269 12.8827 9.79001 12.791 9.65156L10.6983 6.49133C10.6217 6.37564 10.5178 6.28082 10.396 6.21533C10.2742 6.14983 10.1381 6.1157 10 6.11597V14.1222Z" fill="#0D2352"/>
</svg>
