<svg width="40" height="40" viewBox="0 0 40 40" fill="none" xmlns="http://www.w3.org/2000/svg">
<g clip-path="url(#clip0_315_7202)">
<path d="M20 40C31.0457 40 40 31.0457 40 20C40 8.9543 31.0457 0 20 0C8.9543 0 0 8.9543 0 20C0 31.0457 8.9543 40 20 40Z" fill="#223551"/>
<path d="M27.3874 20.6938C27.6562 20.1 27.8124 19.4688 27.8062 18.825C27.7812 17.625 27.4187 15.8563 25.7812 14.2938C24.3624 12.9313 22.4499 12.2125 20.4812 12.1C18.2874 11.9688 15.1249 12.3375 12.7437 14.8875C9.39367 18.4688 11.0624 22.25 12.2187 24.0375C13.6999 26.325 14.1937 28.8125 13.5312 31.4563C13.4172 31.9132 13.2859 32.3656 13.1374 32.8125H22.1999C22.2062 32.7938 22.2062 32.7813 22.2062 32.7563C22.0749 31.5188 22.9499 30.4125 24.1937 30.5063C24.9437 30.5625 25.4562 30.6375 26.0437 30.5125C26.9124 30.3313 26.8062 29.4188 26.6812 29.0063C26.5499 28.5938 26.7312 28.3375 26.7312 28.3375C27.0374 28.0625 27.1562 27.8625 27.1937 27.7438C27.2187 27.6688 27.2124 27.5938 27.1874 27.525L27.0187 27.1438L27.4124 26.875C27.4563 26.8405 27.4908 26.7955 27.5126 26.7442C27.5345 26.6928 27.543 26.6368 27.5374 26.5813C27.4562 25.95 27.5124 25.3188 27.5124 25.3188C27.5124 25.3188 28.0437 25.2313 28.4999 25.025C29.0499 24.7688 27.9062 23.0313 27.3999 22.1063C27.1062 21.5813 27.2312 21.0563 27.3874 20.6938ZM24.7562 19.1563C24.8624 19.4188 24.8062 19.7125 24.4312 19.975C23.9812 20.2875 22.7812 20.5063 21.8187 20.4188C22.1374 20.7875 22.2374 21.3 21.6937 21.7375C21.3687 22.0063 20.6624 22.225 19.9312 22.2875C18.9312 23.1688 18.9437 25.5563 18.9437 25.5563H18.0749C18.0687 25.2688 17.9312 24 17.8499 23.6063C17.5312 24 17.0562 24.275 16.5687 24.2313C15.7874 24.1563 15.3812 23.425 15.3812 22.6438V22.625C15.2062 22.7438 14.9937 22.8188 14.7624 22.8188C14.1562 22.8188 13.6687 22.325 13.6687 21.7188C13.6687 21.6 13.6874 21.4813 13.7312 21.3688C12.6749 21.1438 12.4562 18.5938 13.6312 17.8563C13.4687 17.6563 13.3999 17.375 13.4687 17.0875C13.5624 16.725 13.8562 16.45 14.1749 16.3813C14.1413 16.2865 14.1308 16.1852 14.1442 16.0856C14.1576 15.986 14.1946 15.891 14.252 15.8085C14.3094 15.7261 14.3857 15.6585 14.4745 15.6113C14.5632 15.5642 14.6619 15.5389 14.7624 15.5375C14.8062 15.5375 14.8562 15.5438 14.8999 15.5563C14.943 15.4021 15.0196 15.2593 15.1242 15.1381C15.2289 15.017 15.359 14.9204 15.5052 14.8553C15.6515 14.7903 15.8104 14.7583 15.9704 14.7617C16.1305 14.7651 16.2878 14.8038 16.4312 14.875C16.5999 14.4938 16.9812 14.2313 17.4312 14.2313C17.5999 14.2313 17.7562 14.2688 17.8937 14.3375C18.1437 14.1063 18.4812 13.9625 18.8499 13.9625C19.2249 13.9625 19.5687 14.1125 19.8249 14.3563C20.0249 14.2125 20.2749 14.125 20.5499 14.125C21.0437 14.125 21.4624 14.4125 21.6749 14.8188C21.8499 14.725 22.0562 14.6625 22.2687 14.6625C22.8437 14.6625 23.3187 15.05 23.4749 15.5813C23.5249 15.5625 23.5812 15.5563 23.6374 15.5563C23.9749 15.5563 24.5187 15.7563 24.4562 16.3563C24.8562 16.575 25.2499 17 25.4437 17.5938C25.6374 18.1625 25.4687 19.1563 24.7562 19.1563Z" fill="#ECB521"/>
<path d="M19.1814 10.0937C19.4564 10.0937 19.6814 9.86875 19.6814 9.59375V7.6875C19.6814 7.4125 19.4564 7.1875 19.1814 7.1875C18.9064 7.1875 18.6814 7.4125 18.6814 7.6875V9.6C18.6814 9.86875 18.9064 10.0937 19.1814 10.0937ZM13.5939 11.225C13.6265 11.2819 13.67 11.3317 13.722 11.3716C13.774 11.4115 13.8334 11.4408 13.8967 11.4576C13.9601 11.4745 14.0261 11.4786 14.0911 11.4698C14.156 11.461 14.2186 11.4394 14.2751 11.4062C14.3892 11.3397 14.4723 11.2306 14.5062 11.103C14.5402 10.9754 14.5223 10.8395 14.4564 10.725L13.5001 9.06875C13.4675 9.0119 13.4239 8.96207 13.372 8.92215C13.32 8.88222 13.2606 8.85299 13.1973 8.83614C13.1339 8.81928 13.0679 8.81515 13.0029 8.82396C12.938 8.83278 12.8754 8.85437 12.8189 8.8875C12.7048 8.95409 12.6217 9.06311 12.5878 9.19075C12.5538 9.31839 12.5717 9.45428 12.6376 9.56875L13.5939 11.225ZM10.5001 14.3187L8.84387 13.3625C8.78731 13.3294 8.72475 13.3078 8.6598 13.299C8.59486 13.2901 8.52881 13.2943 8.46546 13.3111C8.40212 13.328 8.34275 13.3572 8.29077 13.3971C8.23879 13.4371 8.19523 13.4869 8.16262 13.5438C8.09672 13.6582 8.0788 13.7941 8.11276 13.9218C8.14672 14.0494 8.2298 14.1584 8.34387 14.225L10.0001 15.1813C10.0567 15.2144 10.1192 15.236 10.1842 15.2448C10.2491 15.2536 10.3152 15.2495 10.3785 15.2326C10.4419 15.2158 10.5012 15.1865 10.5532 15.1466C10.6052 15.1067 10.6487 15.0569 10.6814 15C10.8189 14.7625 10.7314 14.4562 10.5001 14.3187ZM31.4064 19.4125H29.4939C29.2189 19.4125 28.9939 19.6375 28.9939 19.9125C28.9939 20.1875 29.2189 20.4125 29.4939 20.4125H31.4064C31.6814 20.4125 31.9064 20.1875 31.9064 19.9125C31.9049 19.7803 31.8518 19.654 31.7583 19.5606C31.6648 19.4671 31.5385 19.414 31.4064 19.4125ZM28.1126 15.25C28.2001 15.25 28.2876 15.225 28.3626 15.1813L30.0189 14.225C30.1133 14.1696 30.187 14.0847 30.2285 13.9834C30.27 13.882 30.2771 13.7699 30.2488 13.6641C30.2204 13.5583 30.158 13.4648 30.0713 13.3979C29.9846 13.331 29.8784 13.2944 29.7689 13.2938C29.6814 13.2938 29.5939 13.3187 29.5189 13.3625L27.8626 14.3187C27.7682 14.3742 27.6945 14.4591 27.653 14.5604C27.6115 14.6617 27.6043 14.7739 27.6327 14.8796C27.6611 14.9854 27.7235 15.0789 27.8101 15.1458C27.8968 15.2127 28.0031 15.2493 28.1126 15.25ZM24.0876 11.4062C24.1442 11.4394 24.2067 11.461 24.2717 11.4698C24.3366 11.4786 24.4027 11.4745 24.466 11.4576C24.5294 11.4408 24.5887 11.4115 24.6407 11.3716C24.6927 11.3317 24.7363 11.2819 24.7689 11.225L25.7251 9.56875C25.7689 9.49287 25.792 9.40681 25.7921 9.31919C25.7922 9.23157 25.7692 9.14547 25.7256 9.06951C25.6819 8.99355 25.619 8.93041 25.5432 8.8864C25.4675 8.84239 25.3815 8.81906 25.2939 8.81875C25.1189 8.81875 24.9501 8.9125 24.8626 9.06875L23.9064 10.725C23.8405 10.8395 23.8225 10.9754 23.8565 11.103C23.8905 11.2306 23.9736 11.3397 24.0876 11.4062Z" fill="white"/>
</g>
<defs>
<clipPath id="clip0_315_7202">
<rect width="40" height="40" fill="white"/>
</clipPath>
</defs>
</svg>
